# MagicaVoxel @ ephtracy

# material
mtllib untitled.mtl
usemtl palette

# normals
vn -1 0 0
vn 1 0 0
vn 0 0 1
vn 0 0 -1
vn 0 -1 0
vn 0 1 0

# texcoords
vt 0.537109 0.5
vt 0.876953 0.5
vt 0.958984 0.5
vt 0.986328 0.5

# verts
v -8 0 4.5
v -8 0 -4.5
v -8 3 4.5
v -8 3 -4.5
v -8 4 4.5
v -8 4 -4.5
v -8 6 4.5
v -8 6 3.5
v -8 6 -3.5
v -8 6 -4.5
v -8 7 3.5
v -8 7 2.5
v -8 7 -2.5
v -8 7 -3.5
v -8 8 2.5
v -8 8 -2.5
v -7 0 5.5
v -7 0 4.5
v -7 0 -4.5
v -7 0 -5.5
v -7 3 5.5
v -7 3 4.5
v -7 3 -4.5
v -7 4 5.5
v -7 4 4.5
v -7 4 -4.5
v -7 6 5.5
v -7 6 4.5
v -7 6 3.5
v -7 6 -3.5
v -7 6 -4.5
v -7 6 -5.5
v -7 7 4.5
v -7 7 3.5
v -7 7 2.5
v -7 7 -2.5
v -7 7 -3.5
v -7 7 -4.5
v -7 8 3.5
v -7 8 2.5
v -7 8 -2.5
v -7 8 -3.5
v -7 9 2.5
v -7 9 -2.5
v -3 2 5.5
v -3 2 4.5
v -3 3 4.5
v -3 4 4.5
v -3 5 5.5
v -3 5 4.5
v -2 1 5.5
v -2 1 4.5
v -2 2 5.5
v -2 2 4.5
v -2 5 5.5
v -2 5 4.5
v -2 6 5.5
v -2 6 4.5
v -1 3 5.5
v -1 3 4.5
v -1 5 5.5
v -1 5 4.5
v 2 3 5.5
v 2 3 4.5
v 2 5 5.5
v 2 5 4.5
v 5 0 5.5
v 5 0 4.5
v 5 0 -4.5
v 5 0 -5.5
v 5 3 5.5
v 5 3 4.5
v 5 4 5.5
v 5 4 4.5
v 5 6 5.5
v 5 6 4.5
v 5 6 3.5
v 5 6 -3.5
v 5 6 -4.5
v 5 6 -5.5
v 5 7 4.5
v 5 7 3.5
v 5 7 2.5
v 5 7 -2.5
v 5 7 -3.5
v 5 7 -4.5
v 5 8 3.5
v 5 8 2.5
v 5 8 -2.5
v 5 8 -3.5
v 5 9 2.5
v 5 9 -2.5
v -5 0 5.5
v -5 0 4.5
v -5 0 -4.5
v -5 0 -5.5
v -5 3 5.5
v -5 3 4.5
v -5 4 5.5
v -5 4 4.5
v -5 6 5.5
v -5 6 4.5
v -5 6 3.5
v -5 6 -3.5
v -5 6 -4.5
v -5 6 -5.5
v -5 7 4.5
v -5 7 3.5
v -5 7 2.5
v -5 7 -2.5
v -5 7 -3.5
v -5 7 -4.5
v -5 8 3.5
v -5 8 2.5
v -5 8 -2.5
v -5 8 -3.5
v -5 9 2.5
v -5 9 -2.5
v -2 3 5.5
v -2 3 4.5
v -2 5 5.5
v -2 5 4.5
v 1 3 5.5
v 1 3 4.5
v 1 5 5.5
v 1 5 4.5
v 2 1 5.5
v 2 1 4.5
v 2 2 5.5
v 2 2 4.5
v 2 5 5.5
v 2 5 4.5
v 2 6 5.5
v 2 6 4.5
v 3 2 5.5
v 3 2 4.5
v 3 3 4.5
v 3 4 4.5
v 3 5 5.5
v 3 5 4.5
v 7 0 5.5
v 7 0 4.5
v 7 0 -4.5
v 7 0 -5.5
v 7 3 5.5
v 7 3 4.5
v 7 3 -4.5
v 7 4 5.5
v 7 4 4.5
v 7 4 -4.5
v 7 6 5.5
v 7 6 4.5
v 7 6 3.5
v 7 6 -3.5
v 7 6 -4.5
v 7 6 -5.5
v 7 7 4.5
v 7 7 3.5
v 7 7 2.5
v 7 7 -2.5
v 7 7 -3.5
v 7 7 -4.5
v 7 8 3.5
v 7 8 2.5
v 7 8 -2.5
v 7 8 -3.5
v 7 9 2.5
v 7 9 -2.5
v 8 0 4.5
v 8 0 -4.5
v 8 3 4.5
v 8 3 -4.5
v 8 4 4.5
v 8 4 -4.5
v 8 6 4.5
v 8 6 3.5
v 8 6 -3.5
v 8 6 -4.5
v 8 7 3.5
v 8 7 2.5
v 8 7 -2.5
v 8 7 -3.5
v 8 8 2.5
v 8 8 -2.5
v -7 0 5.5
v -7 3 5.5
v -7 4 5.5
v -7 6 5.5
v -5 0 5.5
v -5 3 5.5
v -5 4 5.5
v -5 6 5.5
v -3 2 5.5
v -3 5 5.5
v -2 1 5.5
v -2 2 5.5
v -2 3 5.5
v -2 5 5.5
v -2 6 5.5
v -1 3 5.5
v -1 5 5.5
v 1 3 5.5
v 1 5 5.5
v 2 1 5.5
v 2 2 5.5
v 2 3 5.5
v 2 5 5.5
v 2 6 5.5
v 3 2 5.5
v 3 5 5.5
v 5 0 5.5
v 5 3 5.5
v 5 4 5.5
v 5 6 5.5
v 7 0 5.5
v 7 3 5.5
v 7 4 5.5
v 7 6 5.5
v -8 0 4.5
v -8 3 4.5
v -8 4 4.5
v -8 6 4.5
v -7 0 4.5
v -7 3 4.5
v -7 4 4.5
v -7 6 4.5
v -7 7 4.5
v -5 0 4.5
v -5 3 4.5
v -5 4 4.5
v -5 6 4.5
v -5 7 4.5
v -3 2 4.5
v -3 3 4.5
v -3 4 4.5
v -3 5 4.5
v -2 1 4.5
v -2 2 4.5
v -2 3 4.5
v -2 5 4.5
v -2 6 4.5
v -1 3 4.5
v -1 5 4.5
v 1 3 4.5
v 1 5 4.5
v 2 1 4.5
v 2 2 4.5
v 2 3 4.5
v 2 5 4.5
v 2 6 4.5
v 3 2 4.5
v 3 3 4.5
v 3 4 4.5
v 3 5 4.5
v 5 0 4.5
v 5 3 4.5
v 5 4 4.5
v 5 6 4.5
v 5 7 4.5
v 7 0 4.5
v 7 3 4.5
v 7 4 4.5
v 7 6 4.5
v 7 7 4.5
v 8 0 4.5
v 8 3 4.5
v 8 4 4.5
v 8 6 4.5
v -8 6 3.5
v -8 7 3.5
v -7 6 3.5
v -7 7 3.5
v -7 8 3.5
v -5 6 3.5
v -5 7 3.5
v -5 8 3.5
v 5 6 3.5
v 5 7 3.5
v 5 8 3.5
v 7 6 3.5
v 7 7 3.5
v 7 8 3.5
v 8 6 3.5
v 8 7 3.5
v -8 7 2.5
v -8 8 2.5
v -7 7 2.5
v -7 8 2.5
v -7 9 2.5
v -5 7 2.5
v -5 8 2.5
v -5 9 2.5
v 5 7 2.5
v 5 8 2.5
v 5 9 2.5
v 7 7 2.5
v 7 8 2.5
v 7 9 2.5
v 8 7 2.5
v 8 8 2.5
v -8 7 -2.5
v -8 8 -2.5
v -7 7 -2.5
v -7 8 -2.5
v -7 9 -2.5
v -5 7 -2.5
v -5 8 -2.5
v -5 9 -2.5
v 5 7 -2.5
v 5 8 -2.5
v 5 9 -2.5
v 7 7 -2.5
v 7 8 -2.5
v 7 9 -2.5
v 8 7 -2.5
v 8 8 -2.5
v -8 6 -3.5
v -8 7 -3.5
v -7 6 -3.5
v -7 7 -3.5
v -7 8 -3.5
v -5 6 -3.5
v -5 7 -3.5
v -5 8 -3.5
v 5 6 -3.5
v 5 7 -3.5
v 5 8 -3.5
v 7 6 -3.5
v 7 7 -3.5
v 7 8 -3.5
v 8 6 -3.5
v 8 7 -3.5
v -8 0 -4.5
v -8 3 -4.5
v -8 4 -4.5
v -8 6 -4.5
v -7 0 -4.5
v -7 3 -4.5
v -7 4 -4.5
v -7 6 -4.5
v -7 7 -4.5
v -5 0 -4.5
v -5 6 -4.5
v -5 7 -4.5
v 5 0 -4.5
v 5 6 -4.5
v 5 7 -4.5
v 7 0 -4.5
v 7 3 -4.5
v 7 4 -4.5
v 7 6 -4.5
v 7 7 -4.5
v 8 0 -4.5
v 8 3 -4.5
v 8 4 -4.5
v 8 6 -4.5
v -7 0 -5.5
v -7 6 -5.5
v -5 0 -5.5
v -5 6 -5.5
v 5 0 -5.5
v 5 6 -5.5
v 7 0 -5.5
v 7 6 -5.5
v -7 0 5.5
v -5 0 5.5
v 5 0 5.5
v 7 0 5.5
v -8 0 4.5
v -7 0 4.5
v -5 0 4.5
v 5 0 4.5
v 7 0 4.5
v 8 0 4.5
v -8 0 -4.5
v -7 0 -4.5
v -5 0 -4.5
v 5 0 -4.5
v 7 0 -4.5
v 8 0 -4.5
v -7 0 -5.5
v -5 0 -5.5
v 5 0 -5.5
v 7 0 -5.5
v -2 1 5.5
v 2 1 5.5
v -2 1 4.5
v 2 1 4.5
v -3 2 5.5
v -2 2 5.5
v 2 2 5.5
v 3 2 5.5
v -3 2 4.5
v -2 2 4.5
v 2 2 4.5
v 3 2 4.5
v -7 4 5.5
v -5 4 5.5
v 5 4 5.5
v 7 4 5.5
v -7 4 4.5
v -5 4 4.5
v 5 4 4.5
v 7 4 4.5
v -2 5 5.5
v -1 5 5.5
v 1 5 5.5
v 2 5 5.5
v -2 5 4.5
v -1 5 4.5
v 1 5 4.5
v 2 5 4.5
v -7 3 5.5
v -5 3 5.5
v -2 3 5.5
v -1 3 5.5
v 1 3 5.5
v 2 3 5.5
v 5 3 5.5
v 7 3 5.5
v -7 3 4.5
v -5 3 4.5
v -2 3 4.5
v -1 3 4.5
v 1 3 4.5
v 2 3 4.5
v 5 3 4.5
v 7 3 4.5
v -3 5 5.5
v -2 5 5.5
v 2 5 5.5
v 3 5 5.5
v -3 5 4.5
v -2 5 4.5
v 2 5 4.5
v 3 5 4.5
v -7 6 5.5
v -5 6 5.5
v -2 6 5.5
v 2 6 5.5
v 5 6 5.5
v 7 6 5.5
v -8 6 4.5
v -7 6 4.5
v -5 6 4.5
v -2 6 4.5
v 2 6 4.5
v 5 6 4.5
v 7 6 4.5
v 8 6 4.5
v -8 6 3.5
v -7 6 3.5
v -5 6 3.5
v 5 6 3.5
v 7 6 3.5
v 8 6 3.5
v -8 6 -3.5
v -7 6 -3.5
v -5 6 -3.5
v 5 6 -3.5
v 7 6 -3.5
v 8 6 -3.5
v -8 6 -4.5
v -7 6 -4.5
v -5 6 -4.5
v 5 6 -4.5
v 7 6 -4.5
v 8 6 -4.5
v -7 6 -5.5
v -5 6 -5.5
v 5 6 -5.5
v 7 6 -5.5
v -7 7 4.5
v -5 7 4.5
v 5 7 4.5
v 7 7 4.5
v -8 7 3.5
v -7 7 3.5
v -5 7 3.5
v 5 7 3.5
v 7 7 3.5
v 8 7 3.5
v -8 7 2.5
v -7 7 2.5
v -5 7 2.5
v 5 7 2.5
v 7 7 2.5
v 8 7 2.5
v -8 7 -2.5
v -7 7 -2.5
v -5 7 -2.5
v 5 7 -2.5
v 7 7 -2.5
v 8 7 -2.5
v -8 7 -3.5
v -7 7 -3.5
v -5 7 -3.5
v 5 7 -3.5
v 7 7 -3.5
v 8 7 -3.5
v -7 7 -4.5
v -5 7 -4.5
v 5 7 -4.5
v 7 7 -4.5
v -7 8 3.5
v -5 8 3.5
v 5 8 3.5
v 7 8 3.5
v -8 8 2.5
v -7 8 2.5
v -5 8 2.5
v 5 8 2.5
v 7 8 2.5
v 8 8 2.5
v -8 8 -2.5
v -7 8 -2.5
v -5 8 -2.5
v 5 8 -2.5
v 7 8 -2.5
v 8 8 -2.5
v -7 8 -3.5
v -5 8 -3.5
v 5 8 -3.5
v 7 8 -3.5
v -7 9 2.5
v -5 9 2.5
v 5 9 2.5
v 7 9 2.5
v -7 9 -2.5
v -5 9 -2.5
v 5 9 -2.5
v 7 9 -2.5

# faces
f 3/1/1 2/1/1 1/1/1
f 4/1/1 2/1/1 3/1/1
f 5/2/1 4/2/1 3/2/1
f 6/2/1 4/2/1 5/2/1
f 7/1/1 6/1/1 5/1/1
f 8/1/1 6/1/1 7/1/1
f 9/1/1 6/1/1 8/1/1
f 10/1/1 6/1/1 9/1/1
f 11/1/1 9/1/1 8/1/1
f 12/1/1 9/1/1 11/1/1
f 13/1/1 9/1/1 12/1/1
f 14/1/1 9/1/1 13/1/1
f 15/1/1 13/1/1 12/1/1
f 16/1/1 13/1/1 15/1/1
f 21/4/1 18/4/1 17/4/1
f 22/4/1 18/4/1 21/4/1
f 23/4/1 20/4/1 19/4/1
f 26/4/1 20/4/1 23/4/1
f 27/4/1 25/4/1 24/4/1
f 28/4/1 25/4/1 27/4/1
f 31/4/1 20/4/1 26/4/1
f 32/4/1 20/4/1 31/4/1
f 33/4/1 29/4/1 28/4/1
f 34/4/1 29/4/1 33/4/1
f 37/4/1 31/4/1 30/4/1
f 38/4/1 31/4/1 37/4/1
f 39/4/1 35/4/1 34/4/1
f 40/4/1 35/4/1 39/4/1
f 41/4/1 37/4/1 36/4/1
f 42/4/1 37/4/1 41/4/1
f 43/4/1 41/4/1 40/4/1
f 44/4/1 41/4/1 43/4/1
f 47/3/1 46/3/1 45/3/1
f 48/3/1 47/3/1 45/3/1
f 49/3/1 48/3/1 45/3/1
f 50/3/1 48/3/1 49/3/1
f 53/3/1 52/3/1 51/3/1
f 54/3/1 52/3/1 53/3/1
f 57/3/1 56/3/1 55/3/1
f 58/3/1 56/3/1 57/3/1
f 61/3/1 60/3/1 59/3/1
f 62/3/1 60/3/1 61/3/1
f 65/3/1 64/3/1 63/3/1
f 66/3/1 64/3/1 65/3/1
f 71/4/1 68/4/1 67/4/1
f 72/4/1 68/4/1 71/4/1
f 75/4/1 74/4/1 73/4/1
f 76/4/1 74/4/1 75/4/1
f 79/4/1 70/4/1 69/4/1
f 80/4/1 70/4/1 79/4/1
f 81/4/1 77/4/1 76/4/1
f 82/4/1 77/4/1 81/4/1
f 85/4/1 79/4/1 78/4/1
f 86/4/1 79/4/1 85/4/1
f 87/4/1 83/4/1 82/4/1
f 88/4/1 83/4/1 87/4/1
f 89/4/1 85/4/1 84/4/1
f 90/4/1 85/4/1 89/4/1
f 91/4/1 89/4/1 88/4/1
f 92/4/1 89/4/1 91/4/1
f 93/4/2 94/4/2 97/4/2
f 97/4/2 94/4/2 98/4/2
f 99/4/2 100/4/2 101/4/2
f 101/4/2 100/4/2 102/4/2
f 95/4/2 96/4/2 105/4/2
f 105/4/2 96/4/2 106/4/2
f 102/4/2 103/4/2 107/4/2
f 107/4/2 103/4/2 108/4/2
f 104/4/2 105/4/2 111/4/2
f 111/4/2 105/4/2 112/4/2
f 108/4/2 109/4/2 113/4/2
f 113/4/2 109/4/2 114/4/2
f 110/4/2 111/4/2 115/4/2
f 115/4/2 111/4/2 116/4/2
f 114/4/2 115/4/2 117/4/2
f 117/4/2 115/4/2 118/4/2
f 119/3/2 120/3/2 121/3/2
f 121/3/2 120/3/2 122/3/2
f 123/3/2 124/3/2 125/3/2
f 125/3/2 124/3/2 126/3/2
f 127/3/2 128/3/2 129/3/2
f 129/3/2 128/3/2 130/3/2
f 131/3/2 132/3/2 133/3/2
f 133/3/2 132/3/2 134/3/2
f 135/3/2 136/3/2 137/3/2
f 135/3/2 137/3/2 138/3/2
f 135/3/2 138/3/2 139/3/2
f 139/3/2 138/3/2 140/3/2
f 141/4/2 142/4/2 145/4/2
f 145/4/2 142/4/2 146/4/2
f 143/4/2 144/4/2 147/4/2
f 147/4/2 144/4/2 150/4/2
f 148/4/2 149/4/2 151/4/2
f 151/4/2 149/4/2 152/4/2
f 150/4/2 144/4/2 155/4/2
f 155/4/2 144/4/2 156/4/2
f 152/4/2 153/4/2 157/4/2
f 157/4/2 153/4/2 158/4/2
f 154/4/2 155/4/2 161/4/2
f 161/4/2 155/4/2 162/4/2
f 158/4/2 159/4/2 163/4/2
f 163/4/2 159/4/2 164/4/2
f 160/4/2 161/4/2 165/4/2
f 165/4/2 161/4/2 166/4/2
f 164/4/2 165/4/2 167/4/2
f 167/4/2 165/4/2 168/4/2
f 169/1/2 170/1/2 171/1/2
f 171/1/2 170/1/2 172/1/2
f 171/2/2 172/2/2 173/2/2
f 173/2/2 172/2/2 174/2/2
f 173/1/2 174/1/2 175/1/2
f 175/1/2 174/1/2 176/1/2
f 176/1/2 174/1/2 177/1/2
f 177/1/2 174/1/2 178/1/2
f 176/1/2 177/1/2 179/1/2
f 179/1/2 177/1/2 180/1/2
f 180/1/2 177/1/2 181/1/2
f 181/1/2 177/1/2 182/1/2
f 180/1/2 181/1/2 183/1/2
f 183/1/2 181/1/2 184/1/2
f 189/4/3 186/4/3 185/4/3
f 190/4/3 186/4/3 189/4/3
f 191/4/3 188/4/3 187/4/3
f 192/4/3 188/4/3 191/4/3
f 196/3/3 194/3/3 193/3/3
f 197/3/3 194/3/3 196/3/3
f 198/3/3 194/3/3 197/3/3
f 200/3/3 196/3/3 195/3/3
f 200/3/3 197/3/3 196/3/3
f 201/3/3 199/3/3 198/3/3
f 202/3/3 200/3/3 195/3/3
f 202/3/3 201/3/3 200/3/3
f 203/3/3 199/3/3 201/3/3
f 203/3/3 201/3/3 202/3/3
f 204/3/3 202/3/3 195/3/3
f 205/3/3 202/3/3 204/3/3
f 206/3/3 202/3/3 205/3/3
f 207/3/3 199/3/3 203/3/3
f 208/3/3 199/3/3 207/3/3
f 209/3/3 206/3/3 205/3/3
f 209/3/3 207/3/3 206/3/3
f 210/3/3 207/3/3 209/3/3
f 215/4/3 212/4/3 211/4/3
f 216/4/3 212/4/3 215/4/3
f 217/4/3 214/4/3 213/4/3
f 218/4/3 214/4/3 217/4/3
f 223/1/3 220/1/3 219/1/3
f 224/2/3 221/2/3 220/2/3
f 224/1/3 220/1/3 223/1/3
f 225/1/3 222/1/3 221/1/3
f 225/2/3 221/2/3 224/2/3
f 226/1/3 222/1/3 225/1/3
f 229/2/3 225/2/3 224/2/3
f 230/2/3 225/2/3 229/2/3
f 231/4/3 227/4/3 226/4/3
f 232/4/3 227/4/3 231/4/3
f 233/1/3 229/1/3 228/1/3
f 234/2/3 230/2/3 229/2/3
f 234/1/3 229/1/3 233/1/3
f 235/1/3 231/1/3 230/1/3
f 235/2/3 230/2/3 234/2/3
f 236/1/3 231/1/3 235/1/3
f 237/1/3 233/1/3 228/1/3
f 238/1/3 233/1/3 237/1/3
f 240/1/3 231/1/3 236/1/3
f 241/1/3 231/1/3 240/1/3
f 242/1/3 240/1/3 239/1/3
f 243/1/3 240/1/3 242/1/3
f 246/1/3 237/1/3 228/1/3
f 248/1/3 245/1/3 244/1/3
f 249/1/3 245/1/3 248/1/3
f 251/1/3 247/1/3 246/1/3
f 254/1/3 250/1/3 249/1/3
f 255/1/3 246/1/3 228/1/3
f 255/1/3 251/1/3 246/1/3
f 255/1/3 252/1/3 251/1/3
f 256/2/3 253/2/3 252/2/3
f 256/1/3 252/1/3 255/1/3
f 257/1/3 254/1/3 253/1/3
f 257/2/3 253/2/3 256/2/3
f 258/1/3 250/1/3 254/1/3
f 258/1/3 254/1/3 257/1/3
f 261/2/3 257/2/3 256/2/3
f 262/2/3 257/2/3 261/2/3
f 263/4/3 259/4/3 258/4/3
f 264/4/3 259/4/3 263/4/3
f 265/1/3 261/1/3 260/1/3
f 266/2/3 262/2/3 261/2/3
f 266/1/3 261/1/3 265/1/3
f 267/1/3 263/1/3 262/1/3
f 267/2/3 262/2/3 266/2/3
f 268/1/3 263/1/3 267/1/3
f 271/1/3 270/1/3 269/1/3
f 272/1/3 270/1/3 271/1/3
f 275/4/3 273/4/3 272/4/3
f 276/4/3 273/4/3 275/4/3
f 277/1/3 275/1/3 274/1/3
f 278/1/3 275/1/3 277/1/3
f 281/4/3 279/4/3 278/4/3
f 282/4/3 279/4/3 281/4/3
f 283/1/3 281/1/3 280/1/3
f 284/1/3 281/1/3 283/1/3
f 287/1/3 286/1/3 285/1/3
f 288/1/3 286/1/3 287/1/3
f 291/4/3 289/4/3 288/4/3
f 292/4/3 289/4/3 291/4/3
f 293/1/3 291/1/3 290/1/3
f 294/1/3 291/1/3 293/1/3
f 297/4/3 295/4/3 294/4/3
f 298/4/3 295/4/3 297/4/3
f 299/1/3 297/1/3 296/1/3
f 300/1/3 297/1/3 299/1/3
f 301/1/4 302/1/4 303/1/4
f 303/1/4 302/1/4 304/1/4
f 304/4/4 305/4/4 307/4/4
f 307/4/4 305/4/4 308/4/4
f 306/1/4 307/1/4 309/1/4
f 309/1/4 307/1/4 310/1/4
f 310/4/4 311/4/4 313/4/4
f 313/4/4 311/4/4 314/4/4
f 312/1/4 313/1/4 315/1/4
f 315/1/4 313/1/4 316/1/4
f 317/1/4 318/1/4 319/1/4
f 319/1/4 318/1/4 320/1/4
f 320/4/4 321/4/4 323/4/4
f 323/4/4 321/4/4 324/4/4
f 322/1/4 323/1/4 325/1/4
f 325/1/4 323/1/4 326/1/4
f 326/4/4 327/4/4 329/4/4
f 329/4/4 327/4/4 330/4/4
f 328/1/4 329/1/4 331/1/4
f 331/1/4 329/1/4 332/1/4
f 333/1/4 334/1/4 337/1/4
f 334/2/4 335/2/4 338/2/4
f 337/1/4 334/1/4 338/1/4
f 335/1/4 336/1/4 339/1/4
f 338/2/4 335/2/4 339/2/4
f 339/1/4 336/1/4 340/1/4
f 340/4/4 341/4/4 343/4/4
f 343/4/4 341/4/4 344/4/4
f 342/1/4 343/1/4 345/1/4
f 345/1/4 343/1/4 346/1/4
f 346/4/4 347/4/4 351/4/4
f 351/4/4 347/4/4 352/4/4
f 348/1/4 349/1/4 353/1/4
f 349/2/4 350/2/4 354/2/4
f 353/1/4 349/1/4 354/1/4
f 350/1/4 351/1/4 355/1/4
f 354/2/4 350/2/4 355/2/4
f 355/1/4 351/1/4 356/1/4
f 357/4/4 358/4/4 359/4/4
f 359/4/4 358/4/4 360/4/4
f 361/4/4 362/4/4 363/4/4
f 363/4/4 362/4/4 364/4/4
f 370/4/5 366/4/5 365/4/5
f 371/4/5 366/4/5 370/4/5
f 372/4/5 368/4/5 367/4/5
f 373/4/5 368/4/5 372/4/5
f 375/1/5 371/1/5 370/1/5
f 375/1/5 374/1/5 373/1/5
f 375/1/5 373/1/5 372/1/5
f 375/1/5 372/1/5 371/1/5
f 375/1/5 370/1/5 369/1/5
f 376/1/5 374/1/5 375/1/5
f 377/1/5 374/1/5 376/1/5
f 378/1/5 374/1/5 377/1/5
f 379/1/5 374/1/5 378/1/5
f 380/1/5 374/1/5 379/1/5
f 381/4/5 377/4/5 376/4/5
f 382/4/5 377/4/5 381/4/5
f 383/4/5 379/4/5 378/4/5
f 384/4/5 379/4/5 383/4/5
f 387/3/5 386/3/5 385/3/5
f 388/3/5 386/3/5 387/3/5
f 393/3/5 390/3/5 389/3/5
f 394/3/5 390/3/5 393/3/5
f 395/3/5 392/3/5 391/3/5
f 396/3/5 392/3/5 395/3/5
f 401/4/5 398/4/5 397/4/5
f 402/4/5 398/4/5 401/4/5
f 403/4/5 400/4/5 399/4/5
f 404/4/5 400/4/5 403/4/5
f 409/3/5 406/3/5 405/3/5
f 410/3/5 406/3/5 409/3/5
f 411/3/5 408/3/5 407/3/5
f 412/3/5 408/3/5 411/3/5
f 413/4/6 414/4/6 421/4/6
f 421/4/6 414/4/6 422/4/6
f 415/3/6 416/3/6 423/3/6
f 423/3/6 416/3/6 424/3/6
f 417/3/6 418/3/6 425/3/6
f 425/3/6 418/3/6 426/3/6
f 419/4/6 420/4/6 427/4/6
f 427/4/6 420/4/6 428/4/6
f 429/3/6 430/3/6 433/3/6
f 433/3/6 430/3/6 434/3/6
f 431/3/6 432/3/6 435/3/6
f 435/3/6 432/3/6 436/3/6
f 437/4/6 438/4/6 444/4/6
f 444/4/6 438/4/6 445/4/6
f 439/3/6 440/3/6 446/3/6
f 446/3/6 440/3/6 447/3/6
f 441/4/6 442/4/6 448/4/6
f 448/4/6 442/4/6 449/4/6
f 443/1/6 444/1/6 451/1/6
f 451/1/6 444/1/6 452/1/6
f 446/1/6 447/1/6 453/1/6
f 447/1/6 448/1/6 453/1/6
f 445/1/6 446/1/6 453/1/6
f 453/1/6 448/1/6 454/1/6
f 449/1/6 450/1/6 455/1/6
f 455/1/6 450/1/6 456/1/6
f 457/1/6 458/1/6 463/1/6
f 463/1/6 458/1/6 464/1/6
f 459/1/6 460/1/6 465/1/6
f 465/1/6 460/1/6 466/1/6
f 461/1/6 462/1/6 467/1/6
f 467/1/6 462/1/6 468/1/6
f 464/4/6 465/4/6 469/4/6
f 469/4/6 465/4/6 470/4/6
f 466/4/6 467/4/6 471/4/6
f 471/4/6 467/4/6 472/4/6
f 473/4/6 474/4/6 478/4/6
f 478/4/6 474/4/6 479/4/6
f 475/4/6 476/4/6 480/4/6
f 480/4/6 476/4/6 481/4/6
f 477/1/6 478/1/6 483/1/6
f 483/1/6 478/1/6 484/1/6
f 479/1/6 480/1/6 485/1/6
f 485/1/6 480/1/6 486/1/6
f 481/1/6 482/1/6 487/1/6
f 487/1/6 482/1/6 488/1/6
f 489/1/6 490/1/6 495/1/6
f 495/1/6 490/1/6 496/1/6
f 491/1/6 492/1/6 497/1/6
f 497/1/6 492/1/6 498/1/6
f 493/1/6 494/1/6 499/1/6
f 499/1/6 494/1/6 500/1/6
f 496/4/6 497/4/6 501/4/6
f 501/4/6 497/4/6 502/4/6
f 498/4/6 499/4/6 503/4/6
f 503/4/6 499/4/6 504/4/6
f 505/4/6 506/4/6 510/4/6
f 510/4/6 506/4/6 511/4/6
f 507/4/6 508/4/6 512/4/6
f 512/4/6 508/4/6 513/4/6
f 509/1/6 510/1/6 515/1/6
f 515/1/6 510/1/6 516/1/6
f 511/1/6 512/1/6 517/1/6
f 517/1/6 512/1/6 518/1/6
f 513/1/6 514/1/6 519/1/6
f 519/1/6 514/1/6 520/1/6
f 516/4/6 517/4/6 521/4/6
f 521/4/6 517/4/6 522/4/6
f 518/4/6 519/4/6 523/4/6
f 523/4/6 519/4/6 524/4/6
f 525/4/6 526/4/6 529/4/6
f 529/4/6 526/4/6 530/4/6
f 527/4/6 528/4/6 531/4/6
f 531/4/6 528/4/6 532/4/6
