# MagicaVoxel @ ephtracy

# material
mtllib DRACULA.mtl
usemtl palette

# normals
vn -1 0 0
vn 1 0 0
vn 0 0 1
vn 0 0 -1
vn 0 -1 0
vn 0 1 0

# texcoords
vt 0.306641 0.5
vt 0.865234 0.5
vt 0.955078 0.5
vt 0.958984 0.5
vt 0.994141 0.5

# verts
v -6.5 19 22.5
v -6.5 19 19.5
v -6.5 29 22.5
v -6.5 29 19.5
v -5.5 18 22.5
v -5.5 18 19.5
v -5.5 19 22.5
v -5.5 19 19.5
v -5.5 29 22.5
v -5.5 29 19.5
v -5.5 32 22.5
v -5.5 32 19.5
v -4.5 32 22.5
v -4.5 32 19.5
v -4.5 33 22.5
v -4.5 33 19.5
v -3.5 33 22.5
v -3.5 33 19.5
v -3.5 34 22.5
v -3.5 34 19.5
v -2.5 34 22.5
v -2.5 34 19.5
v -2.5 35 22.5
v -2.5 35 19.5
v -1.5 0 22.5
v -1.5 0 19.5
v -1.5 18 22.5
v -1.5 18 19.5
v -1.5 35 22.5
v -1.5 35 21.5
v -1.5 35 19.5
v -1.5 36 22.5
v -1.5 36 21.5
v -1.5 36 19.5
v -0.5 26 22.5
v -0.5 26 21.5
v -0.5 35 22.5
v -0.5 35 21.5
v -0.5 36 22.5
v -0.5 36 21.5
v -0.5 36 19.5
v -0.5 37 22.5
v -0.5 37 21.5
v -0.5 37 19.5
v -0.5 39 22.5
v -0.5 39 21.5
v -0.5 39 19.5
v -0.5 41 22.5
v -0.5 41 21.5
v -0.5 43 22.5
v -0.5 43 19.5
v 0.5 37 22.5
v 0.5 37 21.5
v 0.5 37 19.5
v 0.5 39 22.5
v 0.5 39 21.5
v 0.5 39 19.5
v 2.5 0 22.5
v 2.5 0 19.5
v 2.5 18 22.5
v 2.5 18 19.5
v 2.5 19 22.5
v 2.5 19 21.5
v 2.5 21 22.5
v 2.5 21 21.5
v 5.5 26 22.5
v 5.5 26 21.5
v 5.5 34 22.5
v 5.5 34 21.5
v 5.5 35 22.5
v 5.5 35 21.5
v -1.5 26 22.5
v -1.5 26 21.5
v -1.5 34 22.5
v -1.5 34 21.5
v -1.5 35 22.5
v -1.5 35 21.5
v 1.5 0 22.5
v 1.5 0 19.5
v 1.5 18 22.5
v 1.5 18 19.5
v 1.5 19 22.5
v 1.5 19 21.5
v 1.5 21 22.5
v 1.5 21 21.5
v 3.5 37 22.5
v 3.5 37 21.5
v 3.5 37 19.5
v 3.5 39 22.5
v 3.5 39 21.5
v 3.5 39 19.5
v 4.5 26 22.5
v 4.5 26 21.5
v 4.5 35 22.5
v 4.5 35 21.5
v 4.5 35 20.5
v 4.5 35 19.5
v 4.5 36 22.5
v 4.5 36 21.5
v 4.5 36 20.5
v 4.5 37 22.5
v 4.5 37 21.5
v 4.5 37 19.5
v 4.5 39 22.5
v 4.5 39 21.5
v 4.5 39 19.5
v 4.5 41 22.5
v 4.5 41 21.5
v 4.5 43 22.5
v 4.5 43 19.5
v 5.5 0 22.5
v 5.5 0 19.5
v 5.5 18 22.5
v 5.5 18 19.5
v 5.5 35 22.5
v 5.5 35 21.5
v 5.5 35 20.5
v 5.5 36 22.5
v 5.5 36 21.5
v 5.5 36 20.5
v 6.5 34 22.5
v 6.5 34 19.5
v 6.5 35 22.5
v 6.5 35 19.5
v 7.5 33 22.5
v 7.5 33 19.5
v 7.5 34 22.5
v 7.5 34 19.5
v 8.5 18 20.5
v 8.5 18 19.5
v 8.5 19 20.5
v 8.5 19 19.5
v 8.5 32 22.5
v 8.5 32 19.5
v 8.5 33 22.5
v 8.5 33 19.5
v 9.5 18 22.5
v 9.5 18 20.5
v 9.5 19 22.5
v 9.5 19 20.5
v 10.5 19 22.5
v 10.5 19 19.5
v 10.5 32 22.5
v 10.5 32 19.5
v -6.5 19 22.5
v -6.5 29 22.5
v -5.5 18 22.5
v -5.5 19 22.5
v -5.5 29 22.5
v -5.5 32 22.5
v -4.5 29 22.5
v -4.5 32 22.5
v -4.5 33 22.5
v -3.5 32 22.5
v -3.5 33 22.5
v -3.5 34 22.5
v -2.5 33 22.5
v -2.5 34 22.5
v -2.5 35 22.5
v -1.5 0 22.5
v -1.5 18 22.5
v -1.5 19 22.5
v -1.5 24 22.5
v -1.5 25 22.5
v -1.5 26 22.5
v -1.5 34 22.5
v -1.5 35 22.5
v -1.5 36 22.5
v -0.5 24 22.5
v -0.5 25 22.5
v -0.5 26 22.5
v -0.5 35 22.5
v -0.5 36 22.5
v -0.5 37 22.5
v -0.5 39 22.5
v -0.5 41 22.5
v -0.5 43 22.5
v 0.5 36 22.5
v 0.5 37 22.5
v 0.5 39 22.5
v 0.5 40 22.5
v 0.5 41 22.5
v 0.5 42 22.5
v 1.5 0 22.5
v 1.5 18 22.5
v 1.5 19 22.5
v 1.5 21 22.5
v 1.5 34 22.5
v 1.5 36 22.5
v 1.5 40 22.5
v 1.5 41 22.5
v 2.5 0 22.5
v 2.5 18 22.5
v 2.5 19 22.5
v 2.5 21 22.5
v 2.5 34 22.5
v 2.5 36 22.5
v 2.5 40 22.5
v 2.5 41 22.5
v 3.5 36 22.5
v 3.5 37 22.5
v 3.5 39 22.5
v 3.5 40 22.5
v 3.5 41 22.5
v 3.5 42 22.5
v 4.5 24 22.5
v 4.5 25 22.5
v 4.5 26 22.5
v 4.5 35 22.5
v 4.5 36 22.5
v 4.5 37 22.5
v 4.5 39 22.5
v 4.5 41 22.5
v 4.5 43 22.5
v 5.5 0 22.5
v 5.5 18 22.5
v 5.5 19 22.5
v 5.5 24 22.5
v 5.5 25 22.5
v 5.5 26 22.5
v 5.5 34 22.5
v 5.5 35 22.5
v 5.5 36 22.5
v 6.5 33 22.5
v 6.5 34 22.5
v 6.5 35 22.5
v 7.5 32 22.5
v 7.5 33 22.5
v 7.5 34 22.5
v 8.5 31 22.5
v 8.5 32 22.5
v 8.5 33 22.5
v 9.5 18 22.5
v 9.5 19 22.5
v 9.5 31 22.5
v 10.5 19 22.5
v 10.5 32 22.5
v -1.5 26 21.5
v -1.5 34 21.5
v -1.5 35 21.5
v -0.5 26 21.5
v -0.5 35 21.5
v 1.5 19 21.5
v 1.5 21 21.5
v 2.5 19 21.5
v 2.5 21 21.5
v 4.5 26 21.5
v 4.5 35 21.5
v 5.5 26 21.5
v 5.5 34 21.5
v 5.5 35 21.5
v 4.5 35 20.5
v 4.5 36 20.5
v 5.5 35 20.5
v 5.5 36 20.5
v 8.5 18 20.5
v 8.5 19 20.5
v 9.5 18 20.5
v 9.5 19 20.5
v -6.5 19 19.5
v -6.5 29 19.5
v -5.5 18 19.5
v -5.5 19 19.5
v -5.5 29 19.5
v -5.5 32 19.5
v -4.5 32 19.5
v -4.5 33 19.5
v -3.5 33 19.5
v -3.5 34 19.5
v -2.5 34 19.5
v -2.5 35 19.5
v -1.5 0 19.5
v -1.5 18 19.5
v -1.5 35 19.5
v -1.5 36 19.5
v -0.5 36 19.5
v -0.5 37 19.5
v -0.5 39 19.5
v -0.5 43 19.5
v 0.5 37 19.5
v 0.5 39 19.5
v 1.5 0 19.5
v 1.5 18 19.5
v 2.5 0 19.5
v 2.5 18 19.5
v 3.5 37 19.5
v 3.5 39 19.5
v 4.5 35 19.5
v 4.5 37 19.5
v 4.5 39 19.5
v 4.5 43 19.5
v 5.5 0 19.5
v 5.5 18 19.5
v 6.5 34 19.5
v 6.5 35 19.5
v 7.5 33 19.5
v 7.5 34 19.5
v 8.5 18 19.5
v 8.5 19 19.5
v 8.5 32 19.5
v 8.5 33 19.5
v 10.5 19 19.5
v 10.5 32 19.5
v -1.5 0 22.5
v 1.5 0 22.5
v 2.5 0 22.5
v 5.5 0 22.5
v -1.5 0 19.5
v 1.5 0 19.5
v 2.5 0 19.5
v 5.5 0 19.5
v -5.5 18 22.5
v -1.5 18 22.5
v 1.5 18 22.5
v 2.5 18 22.5
v 5.5 18 22.5
v 9.5 18 22.5
v 8.5 18 20.5
v 9.5 18 20.5
v -5.5 18 19.5
v -1.5 18 19.5
v 1.5 18 19.5
v 2.5 18 19.5
v 5.5 18 19.5
v 8.5 18 19.5
v -6.5 19 22.5
v -5.5 19 22.5
v 9.5 19 22.5
v 10.5 19 22.5
v 8.5 19 20.5
v 9.5 19 20.5
v -6.5 19 19.5
v -5.5 19 19.5
v 8.5 19 19.5
v 10.5 19 19.5
v 1.5 21 22.5
v 2.5 21 22.5
v 1.5 21 21.5
v 2.5 21 21.5
v -1.5 35 22.5
v -0.5 35 22.5
v 4.5 35 22.5
v 5.5 35 22.5
v -1.5 35 21.5
v -0.5 35 21.5
v 4.5 35 21.5
v 5.5 35 21.5
v -0.5 39 22.5
v 0.5 39 22.5
v 3.5 39 22.5
v 4.5 39 22.5
v -0.5 39 21.5
v 0.5 39 21.5
v 3.5 39 21.5
v 4.5 39 21.5
v -0.5 39 19.5
v 0.5 39 19.5
v 3.5 39 19.5
v 4.5 39 19.5
v 1.5 19 22.5
v 2.5 19 22.5
v 1.5 19 21.5
v 2.5 19 21.5
v -1.5 26 22.5
v -0.5 26 22.5
v 4.5 26 22.5
v 5.5 26 22.5
v -1.5 26 21.5
v -0.5 26 21.5
v 4.5 26 21.5
v 5.5 26 21.5
v -6.5 29 22.5
v -5.5 29 22.5
v -6.5 29 19.5
v -5.5 29 19.5
v -5.5 32 22.5
v -4.5 32 22.5
v 8.5 32 22.5
v 10.5 32 22.5
v -5.5 32 19.5
v -4.5 32 19.5
v 8.5 32 19.5
v 10.5 32 19.5
v -4.5 33 22.5
v -3.5 33 22.5
v 7.5 33 22.5
v 8.5 33 22.5
v -4.5 33 19.5
v -3.5 33 19.5
v 7.5 33 19.5
v 8.5 33 19.5
v -3.5 34 22.5
v -2.5 34 22.5
v 6.5 34 22.5
v 7.5 34 22.5
v -3.5 34 19.5
v -2.5 34 19.5
v 6.5 34 19.5
v 7.5 34 19.5
v -2.5 35 22.5
v -1.5 35 22.5
v 5.5 35 22.5
v 6.5 35 22.5
v -1.5 35 21.5
v 5.5 35 21.5
v 4.5 35 20.5
v 5.5 35 20.5
v -2.5 35 19.5
v -1.5 35 19.5
v 4.5 35 19.5
v 6.5 35 19.5
v -1.5 36 22.5
v -0.5 36 22.5
v 4.5 36 22.5
v 5.5 36 22.5
v -1.5 36 21.5
v -0.5 36 21.5
v 4.5 36 21.5
v 5.5 36 21.5
v 4.5 36 20.5
v 5.5 36 20.5
v -1.5 36 19.5
v -0.5 36 19.5
v -0.5 37 22.5
v 0.5 37 22.5
v 3.5 37 22.5
v 4.5 37 22.5
v -0.5 37 21.5
v 0.5 37 21.5
v 3.5 37 21.5
v 4.5 37 21.5
v -0.5 37 19.5
v 0.5 37 19.5
v 3.5 37 19.5
v 4.5 37 19.5
v -0.5 43 22.5
v 4.5 43 22.5
v -0.5 43 19.5
v 4.5 43 19.5

# faces
f 3/5/1 2/5/1 1/5/1
f 4/5/1 2/5/1 3/5/1
f 7/5/1 6/5/1 5/5/1
f 8/5/1 6/5/1 7/5/1
f 11/5/1 10/5/1 9/5/1
f 12/5/1 10/5/1 11/5/1
f 15/5/1 14/5/1 13/5/1
f 16/5/1 14/5/1 15/5/1
f 19/5/1 18/5/1 17/5/1
f 20/5/1 18/5/1 19/5/1
f 23/5/1 22/5/1 21/5/1
f 24/5/1 22/5/1 23/5/1
f 27/5/1 26/5/1 25/5/1
f 28/5/1 26/5/1 27/5/1
f 32/2/1 30/2/1 29/2/1
f 33/5/1 31/5/1 30/5/1
f 33/2/1 30/2/1 32/2/1
f 34/5/1 31/5/1 33/5/1
f 37/5/1 36/5/1 35/5/1
f 38/5/1 36/5/1 37/5/1
f 42/2/1 40/2/1 39/2/1
f 43/5/1 41/5/1 40/5/1
f 43/2/1 40/2/1 42/2/1
f 44/5/1 41/5/1 43/5/1
f 48/4/1 46/4/1 45/4/1
f 49/5/1 47/5/1 46/5/1
f 49/4/1 46/4/1 48/4/1
f 50/5/1 49/5/1 48/5/1
f 51/5/1 47/5/1 49/5/1
f 51/5/1 49/5/1 50/5/1
f 55/4/1 53/4/1 52/4/1
f 56/5/1 54/5/1 53/5/1
f 56/4/1 53/4/1 55/4/1
f 57/5/1 54/5/1 56/5/1
f 60/5/1 59/5/1 58/5/1
f 61/5/1 59/5/1 60/5/1
f 64/5/1 63/5/1 62/5/1
f 65/5/1 63/5/1 64/5/1
f 68/2/1 67/2/1 66/2/1
f 69/2/1 67/2/1 68/2/1
f 70/5/1 69/5/1 68/5/1
f 71/5/1 69/5/1 70/5/1
f 72/2/2 73/2/2 74/2/2
f 74/2/2 73/2/2 75/2/2
f 74/5/2 75/5/2 76/5/2
f 76/5/2 75/5/2 77/5/2
f 78/5/2 79/5/2 80/5/2
f 80/5/2 79/5/2 81/5/2
f 82/5/2 83/5/2 84/5/2
f 84/5/2 83/5/2 85/5/2
f 86/4/2 87/4/2 89/4/2
f 87/5/2 88/5/2 90/5/2
f 89/4/2 87/4/2 90/4/2
f 90/5/2 88/5/2 91/5/2
f 92/5/2 93/5/2 94/5/2
f 94/5/2 93/5/2 95/5/2
f 96/5/2 97/5/2 100/5/2
f 98/2/2 99/2/2 101/2/2
f 99/5/2 100/5/2 102/5/2
f 101/2/2 99/2/2 102/2/2
f 100/5/2 97/5/2 103/5/2
f 102/5/2 100/5/2 103/5/2
f 104/4/2 105/4/2 107/4/2
f 105/5/2 106/5/2 108/5/2
f 107/4/2 105/4/2 108/4/2
f 107/5/2 108/5/2 109/5/2
f 108/5/2 106/5/2 110/5/2
f 109/5/2 108/5/2 110/5/2
f 111/5/2 112/5/2 113/5/2
f 113/5/2 112/5/2 114/5/2
f 115/2/2 116/2/2 118/2/2
f 116/5/2 117/5/2 119/5/2
f 118/2/2 116/2/2 119/2/2
f 119/5/2 117/5/2 120/5/2
f 121/5/2 122/5/2 123/5/2
f 123/5/2 122/5/2 124/5/2
f 125/5/2 126/5/2 127/5/2
f 127/5/2 126/5/2 128/5/2
f 129/5/2 130/5/2 131/5/2
f 131/5/2 130/5/2 132/5/2
f 133/5/2 134/5/2 135/5/2
f 135/5/2 134/5/2 136/5/2
f 137/5/2 138/5/2 139/5/2
f 139/5/2 138/5/2 140/5/2
f 141/5/2 142/5/2 143/5/2
f 143/5/2 142/5/2 144/5/2
f 148/5/3 146/5/3 145/5/3
f 149/5/3 146/5/3 148/5/3
f 151/2/3 149/2/3 148/2/3
f 151/5/3 150/5/3 149/5/3
f 152/5/3 150/5/3 151/5/3
f 154/2/3 152/2/3 151/2/3
f 154/5/3 153/5/3 152/5/3
f 155/5/3 153/5/3 154/5/3
f 157/2/3 155/2/3 154/2/3
f 157/5/3 156/5/3 155/5/3
f 158/5/3 156/5/3 157/5/3
f 161/5/3 148/5/3 147/5/3
f 162/2/3 151/2/3 148/2/3
f 162/2/3 154/2/3 151/2/3
f 162/5/3 148/5/3 161/5/3
f 162/2/3 157/2/3 154/2/3
f 162/2/3 158/2/3 157/2/3
f 163/2/3 158/2/3 162/2/3
f 164/2/3 158/2/3 163/2/3
f 165/2/3 158/2/3 164/2/3
f 166/5/3 159/5/3 158/5/3
f 166/2/3 158/2/3 165/2/3
f 167/5/3 159/5/3 166/5/3
f 169/5/3 161/5/3 160/5/3
f 169/5/3 162/5/3 161/5/3
f 169/4/3 164/4/3 163/4/3
f 169/5/3 163/5/3 162/5/3
f 170/3/3 165/3/3 164/3/3
f 170/4/3 164/4/3 169/4/3
f 171/3/3 165/3/3 170/3/3
f 172/2/3 168/2/3 167/2/3
f 173/2/3 168/2/3 172/2/3
f 178/5/3 171/5/3 170/5/3
f 178/5/3 170/5/3 169/5/3
f 178/5/3 172/5/3 171/5/3
f 178/2/3 174/2/3 173/2/3
f 178/5/3 173/5/3 172/5/3
f 179/2/3 174/2/3 178/2/3
f 180/4/3 176/4/3 175/4/3
f 181/4/3 176/4/3 180/4/3
f 182/5/3 177/5/3 176/5/3
f 182/4/3 176/4/3 181/4/3
f 183/5/3 177/5/3 182/5/3
f 184/5/3 169/5/3 160/5/3
f 184/5/3 179/5/3 178/5/3
f 184/5/3 178/5/3 169/5/3
f 185/5/3 179/5/3 184/5/3
f 186/5/3 179/5/3 185/5/3
f 187/5/3 179/5/3 186/5/3
f 188/5/3 179/5/3 187/5/3
f 189/5/3 179/5/3 188/5/3
f 190/4/3 181/4/3 180/4/3
f 190/5/3 182/5/3 181/5/3
f 190/4/3 180/4/3 179/4/3
f 191/4/3 183/4/3 182/4/3
f 191/5/3 182/5/3 190/5/3
f 193/5/3 186/5/3 185/5/3
f 194/5/3 186/5/3 193/5/3
f 195/5/3 188/5/3 187/5/3
f 196/2/3 189/2/3 188/2/3
f 196/5/3 188/5/3 195/5/3
f 197/5/3 179/5/3 189/5/3
f 197/2/3 189/2/3 196/2/3
f 198/4/3 190/4/3 179/4/3
f 198/4/3 191/4/3 190/4/3
f 199/4/3 183/4/3 191/4/3
f 199/4/3 191/4/3 198/4/3
f 200/5/3 196/5/3 195/5/3
f 200/5/3 179/5/3 197/5/3
f 200/5/3 195/5/3 194/5/3
f 200/5/3 194/5/3 193/5/3
f 200/5/3 193/5/3 192/5/3
f 200/5/3 197/5/3 196/5/3
f 201/4/3 198/4/3 179/4/3
f 201/5/3 179/5/3 200/5/3
f 202/4/3 198/4/3 201/4/3
f 203/5/3 199/5/3 198/5/3
f 203/4/3 198/4/3 202/4/3
f 204/4/3 183/4/3 199/4/3
f 204/5/3 199/5/3 203/5/3
f 205/5/3 177/5/3 183/5/3
f 205/4/3 183/4/3 204/4/3
f 206/5/3 200/5/3 192/5/3
f 207/5/3 200/5/3 206/5/3
f 208/5/3 200/5/3 207/5/3
f 209/5/3 200/5/3 208/5/3
f 210/2/3 201/2/3 200/2/3
f 210/5/3 200/5/3 209/5/3
f 211/2/3 201/2/3 210/2/3
f 212/4/3 204/4/3 203/4/3
f 212/4/3 203/4/3 202/4/3
f 213/5/3 205/5/3 204/5/3
f 213/4/3 204/4/3 212/4/3
f 214/5/3 177/5/3 205/5/3
f 214/5/3 205/5/3 213/5/3
f 215/5/3 206/5/3 192/5/3
f 216/5/3 206/5/3 215/5/3
f 217/5/3 206/5/3 216/5/3
f 218/4/3 207/4/3 206/4/3
f 218/5/3 206/5/3 217/5/3
f 219/3/3 208/3/3 207/3/3
f 219/4/3 207/4/3 218/4/3
f 220/3/3 208/3/3 219/3/3
f 222/2/3 210/2/3 209/2/3
f 223/2/3 210/2/3 222/2/3
f 224/2/3 221/2/3 220/2/3
f 224/2/3 218/2/3 217/2/3
f 224/2/3 219/2/3 218/2/3
f 224/2/3 220/2/3 219/2/3
f 225/5/3 222/5/3 221/5/3
f 225/2/3 221/2/3 224/2/3
f 226/5/3 222/5/3 225/5/3
f 227/2/3 224/2/3 217/2/3
f 228/5/3 225/5/3 224/5/3
f 228/2/3 224/2/3 227/2/3
f 229/5/3 225/5/3 228/5/3
f 230/2/3 227/2/3 217/2/3
f 231/5/3 228/5/3 227/5/3
f 231/2/3 227/2/3 230/2/3
f 232/5/3 228/5/3 231/5/3
f 233/5/3 217/5/3 216/5/3
f 234/2/3 230/2/3 217/2/3
f 234/5/3 217/5/3 233/5/3
f 235/5/3 231/5/3 230/5/3
f 235/2/3 230/2/3 234/2/3
f 236/5/3 235/5/3 234/5/3
f 237/5/3 231/5/3 235/5/3
f 237/5/3 235/5/3 236/5/3
f 241/5/3 239/5/3 238/5/3
f 241/5/3 240/5/3 239/5/3
f 242/5/3 240/5/3 241/5/3
f 245/2/3 244/2/3 243/2/3
f 246/2/3 244/2/3 245/2/3
f 249/5/3 248/5/3 247/5/3
f 250/5/3 248/5/3 249/5/3
f 251/5/3 248/5/3 250/5/3
f 252/5/4 253/5/4 254/5/4
f 254/5/4 253/5/4 255/5/4
f 256/5/4 257/5/4 258/5/4
f 258/5/4 257/5/4 259/5/4
f 260/5/4 261/5/4 263/5/4
f 263/5/4 261/5/4 264/5/4
f 262/5/4 263/5/4 266/5/4
f 264/5/4 265/5/4 266/5/4
f 263/5/4 264/5/4 266/5/4
f 266/5/4 267/5/4 268/5/4
f 268/5/4 269/5/4 270/5/4
f 262/5/4 266/5/4 273/5/4
f 270/5/4 271/5/4 273/5/4
f 268/5/4 270/5/4 273/5/4
f 266/5/4 268/5/4 273/5/4
f 273/5/4 271/5/4 274/5/4
f 272/5/4 273/5/4 276/5/4
f 274/5/4 275/5/4 276/5/4
f 273/5/4 274/5/4 276/5/4
f 276/5/4 277/5/4 280/5/4
f 278/5/4 279/5/4 281/5/4
f 272/5/4 276/5/4 282/5/4
f 280/5/4 281/5/4 282/5/4
f 276/5/4 280/5/4 282/5/4
f 282/5/4 281/5/4 283/5/4
f 283/5/4 281/5/4 285/5/4
f 285/5/4 281/5/4 286/5/4
f 284/5/4 285/5/4 286/5/4
f 281/5/4 279/5/4 287/5/4
f 286/5/4 281/5/4 287/5/4
f 284/5/4 286/5/4 288/5/4
f 288/5/4 286/5/4 289/5/4
f 287/5/4 279/5/4 290/5/4
f 290/5/4 279/5/4 291/5/4
f 284/5/4 288/5/4 292/5/4
f 292/5/4 288/5/4 293/5/4
f 293/5/4 288/5/4 294/5/4
f 294/5/4 288/5/4 295/5/4
f 293/5/4 294/5/4 296/5/4
f 296/5/4 294/5/4 297/5/4
f 293/5/4 296/5/4 298/5/4
f 298/5/4 296/5/4 299/5/4
f 299/5/4 296/5/4 300/5/4
f 300/5/4 296/5/4 301/5/4
f 299/5/4 300/5/4 302/5/4
f 302/5/4 300/5/4 303/5/4
f 308/5/5 305/5/5 304/5/5
f 309/5/5 305/5/5 308/5/5
f 310/5/5 307/5/5 306/5/5
f 311/5/5 307/5/5 310/5/5
f 318/5/5 317/5/5 316/5/5
f 319/5/5 317/5/5 318/5/5
f 320/5/5 313/5/5 312/5/5
f 321/5/5 313/5/5 320/5/5
f 322/5/5 315/5/5 314/5/5
f 323/5/5 315/5/5 322/5/5
f 324/5/5 318/5/5 316/5/5
f 325/5/5 318/5/5 324/5/5
f 331/5/5 329/5/5 328/5/5
f 332/5/5 327/5/5 326/5/5
f 333/5/5 327/5/5 332/5/5
f 334/5/5 331/5/5 330/5/5
f 335/5/5 329/5/5 331/5/5
f 335/5/5 331/5/5 334/5/5
f 338/5/5 337/5/5 336/5/5
f 339/5/5 337/5/5 338/5/5
f 344/2/5 341/2/5 340/2/5
f 345/2/5 341/2/5 344/2/5
f 346/2/5 343/2/5 342/2/5
f 347/2/5 343/2/5 346/2/5
f 352/4/5 349/4/5 348/4/5
f 353/4/5 349/4/5 352/4/5
f 354/4/5 351/4/5 350/4/5
f 355/4/5 351/4/5 354/4/5
f 356/5/5 353/5/5 352/5/5
f 357/5/5 353/5/5 356/5/5
f 358/5/5 355/5/5 354/5/5
f 359/5/5 355/5/5 358/5/5
f 360/5/6 361/5/6 362/5/6
f 362/5/6 361/5/6 363/5/6
f 364/3/6 365/3/6 368/3/6
f 368/3/6 365/3/6 369/3/6
f 366/3/6 367/3/6 370/3/6
f 370/3/6 367/3/6 371/3/6
f 372/5/6 373/5/6 374/5/6
f 374/5/6 373/5/6 375/5/6
f 376/5/6 377/5/6 380/5/6
f 380/5/6 377/5/6 381/5/6
f 378/5/6 379/5/6 382/5/6
f 382/5/6 379/5/6 383/5/6
f 384/5/6 385/5/6 388/5/6
f 388/5/6 385/5/6 389/5/6
f 386/5/6 387/5/6 390/5/6
f 390/5/6 387/5/6 391/5/6
f 392/5/6 393/5/6 396/5/6
f 396/5/6 393/5/6 397/5/6
f 394/5/6 395/5/6 398/5/6
f 398/5/6 395/5/6 399/5/6
f 400/5/6 401/5/6 404/5/6
f 402/5/6 403/5/6 405/5/6
f 405/5/6 403/5/6 407/5/6
f 400/5/6 404/5/6 408/5/6
f 408/5/6 404/5/6 409/5/6
f 406/5/6 407/5/6 410/5/6
f 407/5/6 403/5/6 411/5/6
f 410/5/6 407/5/6 411/5/6
f 412/2/6 413/2/6 416/2/6
f 416/2/6 413/2/6 417/2/6
f 414/2/6 415/2/6 418/2/6
f 418/2/6 415/2/6 419/2/6
f 418/5/6 419/5/6 420/5/6
f 420/5/6 419/5/6 421/5/6
f 416/5/6 417/5/6 422/5/6
f 422/5/6 417/5/6 423/5/6
f 424/2/6 425/2/6 428/2/6
f 428/2/6 425/2/6 429/2/6
f 426/2/6 427/2/6 430/2/6
f 430/2/6 427/2/6 431/2/6
f 428/5/6 429/5/6 432/5/6
f 432/5/6 429/5/6 433/5/6
f 430/5/6 431/5/6 434/5/6
f 434/5/6 431/5/6 435/5/6
f 436/5/6 437/5/6 438/5/6
f 438/5/6 437/5/6 439/5/6
