# MagicaVoxel @ ephtracy

# material
mtllib flecha.mtl
usemtl palette

# normals
vn -1 0 0
vn 1 0 0
vn 0 0 1
vn 0 0 -1
vn 0 -1 0
vn 0 1 0

# texcoords
vt 0.841797 0.5
vt 0.873047 0.5
vt 0.958984 0.5
vt 0.986328 0.5

# verts
v -1.5 1 4
v -1.5 1 3
v -1.5 2 4
v -1.5 2 3
v -1.5 2 2
v -1.5 2 -3
v -1.5 2 -4
v -1.5 3 4
v -1.5 3 3
v -1.5 3 2
v -1.5 3 -3
v -1.5 3 -4
v -1.5 4 4
v -1.5 4 3
v -0.5 1 -3
v -0.5 1 -4
v -0.5 2 4
v -0.5 2 3
v -0.5 2 2
v -0.5 2 -3
v -0.5 2 -4
v -0.5 2 -5
v -0.5 3 4
v -0.5 3 3
v -0.5 3 2
v -0.5 3 -3
v -0.5 3 -4
v -0.5 3 -5
v -0.5 4 -3
v -0.5 4 -4
v 0.5 1 4
v 0.5 1 3
v 0.5 2 4
v 0.5 2 3
v 0.5 3 4
v 0.5 3 3
v 0.5 4 4
v 0.5 4 3
v -0.5 1 4
v -0.5 1 3
v -0.5 2 4
v -0.5 2 3
v -0.5 3 4
v -0.5 3 3
v -0.5 4 4
v -0.5 4 3
v 0.5 1 -3
v 0.5 1 -4
v 0.5 2 4
v 0.5 2 3
v 0.5 2 2
v 0.5 2 -3
v 0.5 2 -4
v 0.5 2 -5
v 0.5 3 4
v 0.5 3 3
v 0.5 3 2
v 0.5 3 -3
v 0.5 3 -4
v 0.5 3 -5
v 0.5 4 -3
v 0.5 4 -4
v 1.5 1 4
v 1.5 1 3
v 1.5 2 4
v 1.5 2 3
v 1.5 2 2
v 1.5 2 -3
v 1.5 2 -4
v 1.5 3 4
v 1.5 3 3
v 1.5 3 2
v 1.5 3 -3
v 1.5 3 -4
v 1.5 4 4
v 1.5 4 3
v -1.5 1 4
v -1.5 2 4
v -1.5 3 4
v -1.5 4 4
v -0.5 1 4
v -0.5 2 4
v -0.5 3 4
v -0.5 4 4
v 0.5 1 4
v 0.5 2 4
v 0.5 3 4
v 0.5 4 4
v 1.5 1 4
v 1.5 2 4
v 1.5 3 4
v 1.5 4 4
v -1.5 2 3
v -1.5 3 3
v -0.5 2 3
v -0.5 3 3
v 0.5 2 3
v 0.5 3 3
v 1.5 2 3
v 1.5 3 3
v -1.5 2 -3
v -1.5 3 -3
v -0.5 1 -3
v -0.5 2 -3
v -0.5 3 -3
v -0.5 4 -3
v 0.5 1 -3
v 0.5 2 -3
v 0.5 3 -3
v 0.5 4 -3
v 1.5 2 -3
v 1.5 3 -3
v -1.5 1 3
v -1.5 2 3
v -1.5 3 3
v -1.5 4 3
v -0.5 1 3
v -0.5 2 3
v -0.5 3 3
v -0.5 4 3
v 0.5 1 3
v 0.5 2 3
v 0.5 3 3
v 0.5 4 3
v 1.5 1 3
v 1.5 2 3
v 1.5 3 3
v 1.5 4 3
v -1.5 2 2
v -1.5 3 2
v -0.5 2 2
v -0.5 3 2
v 0.5 2 2
v 0.5 3 2
v 1.5 2 2
v 1.5 3 2
v -1.5 2 -4
v -1.5 3 -4
v -0.5 1 -4
v -0.5 2 -4
v -0.5 3 -4
v -0.5 4 -4
v 0.5 1 -4
v 0.5 2 -4
v 0.5 3 -4
v 0.5 4 -4
v 1.5 2 -4
v 1.5 3 -4
v -0.5 2 -5
v -0.5 3 -5
v 0.5 2 -5
v 0.5 3 -5
v -1.5 1 4
v -0.5 1 4
v 0.5 1 4
v 1.5 1 4
v -1.5 1 3
v -0.5 1 3
v 0.5 1 3
v 1.5 1 3
v -0.5 1 -3
v 0.5 1 -3
v -0.5 1 -4
v 0.5 1 -4
v -0.5 2 4
v 0.5 2 4
v -1.5 2 3
v -0.5 2 3
v 0.5 2 3
v 1.5 2 3
v -1.5 2 2
v -0.5 2 2
v 0.5 2 2
v 1.5 2 2
v -1.5 2 -3
v -0.5 2 -3
v 0.5 2 -3
v 1.5 2 -3
v -1.5 2 -4
v -0.5 2 -4
v 0.5 2 -4
v 1.5 2 -4
v -0.5 2 -5
v 0.5 2 -5
v -1.5 3 4
v -0.5 3 4
v 0.5 3 4
v 1.5 3 4
v -1.5 3 3
v -0.5 3 3
v 0.5 3 3
v 1.5 3 3
v -1.5 2 4
v -0.5 2 4
v 0.5 2 4
v 1.5 2 4
v -1.5 2 3
v -0.5 2 3
v 0.5 2 3
v 1.5 2 3
v -0.5 3 4
v 0.5 3 4
v -1.5 3 3
v -0.5 3 3
v 0.5 3 3
v 1.5 3 3
v -1.5 3 2
v -0.5 3 2
v 0.5 3 2
v 1.5 3 2
v -1.5 3 -3
v -0.5 3 -3
v 0.5 3 -3
v 1.5 3 -3
v -1.5 3 -4
v -0.5 3 -4
v 0.5 3 -4
v 1.5 3 -4
v -0.5 3 -5
v 0.5 3 -5
v -1.5 4 4
v -0.5 4 4
v 0.5 4 4
v 1.5 4 4
v -1.5 4 3
v -0.5 4 3
v 0.5 4 3
v 1.5 4 3
v -0.5 4 -3
v 0.5 4 -3
v -0.5 4 -4
v 0.5 4 -4

# faces
f 3/1/1 2/1/1 1/1/1
f 4/1/1 2/1/1 3/1/1
f 9/3/1 5/3/1 4/3/1
f 10/3/1 5/3/1 9/3/1
f 11/4/1 7/4/1 6/4/1
f 12/4/1 7/4/1 11/4/1
f 13/1/1 9/1/1 8/1/1
f 14/1/1 9/1/1 13/1/1
f 20/4/1 16/4/1 15/4/1
f 21/4/1 16/4/1 20/4/1
f 23/2/1 18/2/1 17/2/1
f 24/2/1 18/2/1 23/2/1
f 25/2/1 20/2/1 19/2/1
f 26/2/1 20/2/1 25/2/1
f 27/4/1 22/4/1 21/4/1
f 28/4/1 22/4/1 27/4/1
f 29/4/1 27/4/1 26/4/1
f 30/4/1 27/4/1 29/4/1
f 33/1/1 32/1/1 31/1/1
f 34/1/1 32/1/1 33/1/1
f 37/1/1 36/1/1 35/1/1
f 38/1/1 36/1/1 37/1/1
f 39/1/2 40/1/2 41/1/2
f 41/1/2 40/1/2 42/1/2
f 43/1/2 44/1/2 45/1/2
f 45/1/2 44/1/2 46/1/2
f 47/4/2 48/4/2 52/4/2
f 52/4/2 48/4/2 53/4/2
f 49/2/2 50/2/2 55/2/2
f 55/2/2 50/2/2 56/2/2
f 51/2/2 52/2/2 57/2/2
f 57/2/2 52/2/2 58/2/2
f 53/4/2 54/4/2 59/4/2
f 59/4/2 54/4/2 60/4/2
f 58/4/2 59/4/2 61/4/2
f 61/4/2 59/4/2 62/4/2
f 63/1/2 64/1/2 65/1/2
f 65/1/2 64/1/2 66/1/2
f 66/3/2 67/3/2 71/3/2
f 71/3/2 67/3/2 72/3/2
f 68/4/2 69/4/2 73/4/2
f 73/4/2 69/4/2 74/4/2
f 70/1/2 71/1/2 75/1/2
f 75/1/2 71/1/2 76/1/2
f 81/1/3 78/1/3 77/1/3
f 82/1/3 78/1/3 81/1/3
f 83/1/3 80/1/3 79/1/3
f 84/1/3 80/1/3 83/1/3
f 86/2/3 83/2/3 82/2/3
f 87/2/3 83/2/3 86/2/3
f 89/1/3 86/1/3 85/1/3
f 90/1/3 86/1/3 89/1/3
f 91/1/3 88/1/3 87/1/3
f 92/1/3 88/1/3 91/1/3
f 95/3/3 94/3/3 93/3/3
f 96/3/3 94/3/3 95/3/3
f 99/3/3 98/3/3 97/3/3
f 100/3/3 98/3/3 99/3/3
f 104/4/3 102/4/3 101/4/3
f 105/4/3 102/4/3 104/4/3
f 107/4/3 104/4/3 103/4/3
f 108/4/3 104/4/3 107/4/3
f 109/4/3 106/4/3 105/4/3
f 110/4/3 106/4/3 109/4/3
f 111/4/3 109/4/3 108/4/3
f 112/4/3 109/4/3 111/4/3
f 113/1/4 114/1/4 117/1/4
f 117/1/4 114/1/4 118/1/4
f 115/1/4 116/1/4 119/1/4
f 119/1/4 116/1/4 120/1/4
f 121/1/4 122/1/4 125/1/4
f 125/1/4 122/1/4 126/1/4
f 123/1/4 124/1/4 127/1/4
f 127/1/4 124/1/4 128/1/4
f 129/3/4 130/3/4 131/3/4
f 131/3/4 130/3/4 132/3/4
f 133/3/4 134/3/4 135/3/4
f 135/3/4 134/3/4 136/3/4
f 137/4/4 138/4/4 140/4/4
f 140/4/4 138/4/4 141/4/4
f 139/4/4 140/4/4 143/4/4
f 143/4/4 140/4/4 144/4/4
f 141/4/4 142/4/4 145/4/4
f 145/4/4 142/4/4 146/4/4
f 144/4/4 145/4/4 147/4/4
f 147/4/4 145/4/4 148/4/4
f 149/4/4 150/4/4 151/4/4
f 151/4/4 150/4/4 152/4/4
f 157/1/5 154/1/5 153/1/5
f 158/1/5 154/1/5 157/1/5
f 159/1/5 156/1/5 155/1/5
f 160/1/5 156/1/5 159/1/5
f 163/4/5 162/4/5 161/4/5
f 164/4/5 162/4/5 163/4/5
f 168/2/5 166/2/5 165/2/5
f 169/2/5 166/2/5 168/2/5
f 171/3/5 168/3/5 167/3/5
f 172/2/5 169/2/5 168/2/5
f 172/3/5 168/3/5 171/3/5
f 173/3/5 170/3/5 169/3/5
f 173/2/5 169/2/5 172/2/5
f 174/3/5 170/3/5 173/3/5
f 176/2/5 173/2/5 172/2/5
f 177/2/5 173/2/5 176/2/5
f 179/4/5 176/4/5 175/4/5
f 180/4/5 176/4/5 179/4/5
f 181/4/5 178/4/5 177/4/5
f 182/4/5 178/4/5 181/4/5
f 183/4/5 181/4/5 180/4/5
f 184/4/5 181/4/5 183/4/5
f 189/1/5 186/1/5 185/1/5
f 190/1/5 186/1/5 189/1/5
f 191/1/5 188/1/5 187/1/5
f 192/1/5 188/1/5 191/1/5
f 193/1/6 194/1/6 197/1/6
f 197/1/6 194/1/6 198/1/6
f 195/1/6 196/1/6 199/1/6
f 199/1/6 196/1/6 200/1/6
f 201/2/6 202/2/6 204/2/6
f 204/2/6 202/2/6 205/2/6
f 203/3/6 204/3/6 207/3/6
f 204/2/6 205/2/6 208/2/6
f 207/3/6 204/3/6 208/3/6
f 205/3/6 206/3/6 209/3/6
f 208/2/6 205/2/6 209/2/6
f 209/3/6 206/3/6 210/3/6
f 208/2/6 209/2/6 212/2/6
f 212/2/6 209/2/6 213/2/6
f 211/4/6 212/4/6 215/4/6
f 215/4/6 212/4/6 216/4/6
f 213/4/6 214/4/6 217/4/6
f 217/4/6 214/4/6 218/4/6
f 216/4/6 217/4/6 219/4/6
f 219/4/6 217/4/6 220/4/6
f 221/1/6 222/1/6 225/1/6
f 225/1/6 222/1/6 226/1/6
f 223/1/6 224/1/6 227/1/6
f 227/1/6 224/1/6 228/1/6
f 229/4/6 230/4/6 231/4/6
f 231/4/6 230/4/6 232/4/6
