# MagicaVoxel @ ephtracy

# material
mtllib arvreouto.mtl
usemtl palette

# normals
vn -1 0 0
vn 1 0 0
vn 0 0 1
vn 0 0 -1
vn 0 -1 0
vn 0 1 0

# texcoords
vt 0.0644531 0.5
vt 0.373047 0.5
vt 0.537109 0.5
vt 0.982422 0.5

# verts
v -5 0 30
v -5 0 -30
v -5 1 30
v -5 1 -30
v -4 5 26
v -4 5 23
v -4 5 -23
v -4 5 -26
v -4 8 26
v -4 8 23
v -4 8 -23
v -4 8 -26
v -3 4 26
v -3 4 23
v -3 4 11
v -3 4 8
v -3 4 -8
v -3 4 -11
v -3 4 -23
v -3 4 -26
v -3 5 27
v -3 5 26
v -3 5 23
v -3 5 22
v -3 5 -22
v -3 5 -23
v -3 5 -26
v -3 5 -27
v -3 7 11
v -3 7 8
v -3 7 -8
v -3 7 -11
v -3 8 27
v -3 8 26
v -3 8 23
v -3 8 22
v -3 8 -22
v -3 8 -23
v -3 8 -26
v -3 8 -27
v -3 9 26
v -3 9 23
v -3 9 -23
v -3 9 -26
v -2 1 25
v -2 1 24
v -2 1 21
v -2 1 18
v -2 1 -18
v -2 1 -21
v -2 1 -24
v -2 1 -25
v -2 2 21
v -2 2 20
v -2 2 19
v -2 2 18
v -2 2 -18
v -2 2 -19
v -2 2 -20
v -2 2 -21
v -2 3 11
v -2 3 8
v -2 3 -8
v -2 3 -11
v -2 4 25
v -2 4 24
v -2 4 12
v -2 4 11
v -2 4 8
v -2 4 7
v -2 4 -7
v -2 4 -8
v -2 4 -11
v -2 4 -12
v -2 4 -24
v -2 4 -25
v -2 5 20
v -2 5 19
v -2 5 -19
v -2 5 -20
v -2 7 12
v -2 7 11
v -2 7 8
v -2 7 7
v -2 7 -7
v -2 7 -8
v -2 7 -11
v -2 7 -12
v -2 8 11
v -2 8 8
v -2 8 -8
v -2 8 -11
v -1 1 10
v -1 1 9
v -1 1 -1
v -1 1 -3
v -1 1 -9
v -1 1 -10
v -1 2 21
v -1 2 20
v -1 2 -1
v -1 2 -3
v -1 2 -20
v -1 2 -21
v -1 3 10
v -1 3 9
v -1 3 -9
v -1 3 -10
v -1 4 21
v -1 4 20
v -1 4 -20
v -1 4 -21
v 0 1 -0
v 0 1 -1
v 0 2 -0
v 0 2 -1
v 0 2 -2
v 0 3 -1
v 0 3 -2
v 1 1 -3
v 1 1 -4
v 1 2 -3
v 1 2 -4
v 1 3 -1
v 1 3 -2
v 1 4 -1
v 1 4 -2
v 2 2 -2
v 2 2 -3
v 2 3 -2
v 2 3 -3
v -1 1 25
v -1 1 24
v -1 1 -24
v -1 1 -25
v -1 3 20
v -1 3 19
v -1 3 -19
v -1 3 -20
v -1 4 25
v -1 4 24
v -1 4 20
v -1 4 -20
v -1 4 -24
v -1 4 -25
v -1 5 20
v -1 5 19
v -1 5 -19
v -1 5 -20
v 0 1 19
v 0 1 18
v 0 1 10
v 0 1 9
v 0 1 -9
v 0 1 -10
v 0 1 -18
v 0 1 -19
v 0 2 21
v 0 2 19
v 0 2 18
v 0 2 -18
v 0 2 -19
v 0 2 -21
v 0 3 20
v 0 3 19
v 0 3 10
v 0 3 9
v 0 3 -9
v 0 3 -10
v 0 3 -19
v 0 3 -20
v 0 4 26
v 0 4 23
v 0 4 21
v 0 4 20
v 0 4 -20
v 0 4 -21
v 0 4 -23
v 0 4 -26
v 0 5 27
v 0 5 26
v 0 5 23
v 0 5 22
v 0 5 -22
v 0 5 -23
v 0 5 -26
v 0 5 -27
v 0 8 27
v 0 8 26
v 0 8 23
v 0 8 22
v 0 8 -22
v 0 8 -23
v 0 8 -26
v 0 8 -27
v 0 9 26
v 0 9 23
v 0 9 -23
v 0 9 -26
v 1 1 21
v 1 1 19
v 1 1 -19
v 1 1 -21
v 1 2 21
v 1 2 19
v 1 2 -19
v 1 2 -21
v 1 3 11
v 1 3 8
v 1 3 -8
v 1 3 -11
v 1 4 12
v 1 4 11
v 1 4 8
v 1 4 7
v 1 4 -7
v 1 4 -8
v 1 4 -11
v 1 4 -12
v 1 5 26
v 1 5 23
v 1 5 -23
v 1 5 -26
v 1 7 12
v 1 7 11
v 1 7 8
v 1 7 7
v 1 7 -7
v 1 7 -8
v 1 7 -11
v 1 7 -12
v 1 8 26
v 1 8 23
v 1 8 11
v 1 8 8
v 1 8 -8
v 1 8 -11
v 1 8 -23
v 1 8 -26
v 2 1 -0
v 2 1 -1
v 2 2 -0
v 2 2 -1
v 2 2 -2
v 2 3 -2
v 2 4 11
v 2 4 8
v 2 4 -1
v 2 4 -2
v 2 4 -8
v 2 4 -11
v 2 7 11
v 2 7 8
v 2 7 -8
v 2 7 -11
v 3 1 -2
v 3 1 -4
v 3 2 -2
v 3 2 -3
v 3 2 -4
v 3 3 -2
v 3 3 -3
v 4 1 -1
v 4 1 -2
v 4 2 -1
v 4 2 -2
v 5 0 30
v 5 0 -30
v 5 1 30
v 5 1 -30
v -5 0 30
v -5 1 30
v 5 0 30
v 5 1 30
v -3 5 27
v -3 8 27
v 0 5 27
v 0 8 27
v -4 5 26
v -4 8 26
v -3 4 26
v -3 5 26
v -3 8 26
v -3 9 26
v 0 4 26
v 0 5 26
v 0 8 26
v 0 9 26
v 1 5 26
v 1 8 26
v -2 1 25
v -2 4 25
v -1 1 25
v -1 4 25
v -2 1 21
v -2 2 21
v -1 2 21
v -1 4 21
v 0 2 21
v 0 4 21
v 1 1 21
v 1 2 21
v -2 2 20
v -2 5 20
v -1 2 20
v -1 4 20
v -1 5 20
v -2 4 12
v -2 7 12
v 1 4 12
v 1 7 12
v -3 4 11
v -3 7 11
v -2 3 11
v -2 4 11
v -2 7 11
v -2 8 11
v 1 3 11
v 1 4 11
v 1 7 11
v 1 8 11
v 2 4 11
v 2 7 11
v -1 1 10
v -1 3 10
v 0 1 10
v 0 3 10
v 0 1 -0
v 0 2 -0
v 2 1 -0
v 2 2 -0
v -1 1 -1
v -1 2 -1
v 0 1 -1
v 0 2 -1
v 0 3 -1
v 1 3 -1
v 1 4 -1
v 2 1 -1
v 2 2 -1
v 2 4 -1
v 4 1 -1
v 4 2 -1
v 2 2 -2
v 2 3 -2
v 3 2 -2
v 3 3 -2
v -2 4 -7
v -2 7 -7
v 1 4 -7
v 1 7 -7
v -3 4 -8
v -3 7 -8
v -2 3 -8
v -2 4 -8
v -2 7 -8
v -2 8 -8
v 1 3 -8
v 1 4 -8
v 1 7 -8
v 1 8 -8
v 2 4 -8
v 2 7 -8
v -1 1 -9
v -1 3 -9
v 0 1 -9
v 0 3 -9
v -2 1 -18
v -2 2 -18
v 0 1 -18
v 0 2 -18
v -2 2 -19
v -2 5 -19
v -1 3 -19
v -1 5 -19
v 0 1 -19
v 0 2 -19
v 0 3 -19
v 1 1 -19
v 1 2 -19
v -1 3 -20
v -1 4 -20
v 0 3 -20
v 0 4 -20
v -3 5 -22
v -3 8 -22
v 0 5 -22
v 0 8 -22
v -4 5 -23
v -4 8 -23
v -3 4 -23
v -3 5 -23
v -3 8 -23
v -3 9 -23
v 0 4 -23
v 0 5 -23
v 0 8 -23
v 0 9 -23
v 1 5 -23
v 1 8 -23
v -2 1 -24
v -2 4 -24
v -1 1 -24
v -1 4 -24
v -2 1 24
v -2 4 24
v -1 1 24
v -1 4 24
v -4 5 23
v -4 8 23
v -3 4 23
v -3 5 23
v -3 8 23
v -3 9 23
v 0 4 23
v 0 5 23
v 0 8 23
v 0 9 23
v 1 5 23
v 1 8 23
v -3 5 22
v -3 8 22
v 0 5 22
v 0 8 22
v -1 3 20
v -1 4 20
v 0 3 20
v 0 4 20
v -2 2 19
v -2 5 19
v -1 3 19
v -1 5 19
v 0 1 19
v 0 2 19
v 0 3 19
v 1 1 19
v 1 2 19
v -2 1 18
v -2 2 18
v 0 1 18
v 0 2 18
v -1 1 9
v -1 3 9
v 0 1 9
v 0 3 9
v -3 4 8
v -3 7 8
v -2 3 8
v -2 4 8
v -2 7 8
v -2 8 8
v 1 3 8
v 1 4 8
v 1 7 8
v 1 8 8
v 2 4 8
v 2 7 8
v -2 4 7
v -2 7 7
v 1 4 7
v 1 7 7
v 0 2 -2
v 0 3 -2
v 1 3 -2
v 1 4 -2
v 2 2 -2
v 2 3 -2
v 2 4 -2
v 3 1 -2
v 3 2 -2
v 4 1 -2
v 4 2 -2
v -1 1 -3
v -1 2 -3
v 1 1 -3
v 1 2 -3
v 2 2 -3
v 2 3 -3
v 3 2 -3
v 3 3 -3
v 1 1 -4
v 1 2 -4
v 3 1 -4
v 3 2 -4
v -1 1 -10
v -1 3 -10
v 0 1 -10
v 0 3 -10
v -3 4 -11
v -3 7 -11
v -2 3 -11
v -2 4 -11
v -2 7 -11
v -2 8 -11
v 1 3 -11
v 1 4 -11
v 1 7 -11
v 1 8 -11
v 2 4 -11
v 2 7 -11
v -2 4 -12
v -2 7 -12
v 1 4 -12
v 1 7 -12
v -2 2 -20
v -2 5 -20
v -1 2 -20
v -1 4 -20
v -1 5 -20
v -2 1 -21
v -2 2 -21
v -1 2 -21
v -1 4 -21
v 0 2 -21
v 0 4 -21
v 1 1 -21
v 1 2 -21
v -2 1 -25
v -2 4 -25
v -1 1 -25
v -1 4 -25
v -4 5 -26
v -4 8 -26
v -3 4 -26
v -3 5 -26
v -3 8 -26
v -3 9 -26
v 0 4 -26
v 0 5 -26
v 0 8 -26
v 0 9 -26
v 1 5 -26
v 1 8 -26
v -3 5 -27
v -3 8 -27
v 0 5 -27
v 0 8 -27
v -5 0 -30
v -5 1 -30
v 5 0 -30
v 5 1 -30
v -5 0 30
v 5 0 30
v -5 0 -30
v 5 0 -30
v -2 3 11
v 1 3 11
v -1 3 10
v 0 3 10
v -1 3 9
v 0 3 9
v -2 3 8
v 1 3 8
v -2 3 -8
v 1 3 -8
v -1 3 -9
v 0 3 -9
v -1 3 -10
v 0 3 -10
v -2 3 -11
v 1 3 -11
v -3 4 26
v 0 4 26
v -2 4 25
v -1 4 25
v -2 4 24
v -1 4 24
v -3 4 23
v 0 4 23
v -2 4 12
v 1 4 12
v -3 4 11
v -2 4 11
v 1 4 11
v 2 4 11
v -3 4 8
v -2 4 8
v 1 4 8
v 2 4 8
v -2 4 7
v 1 4 7
v -2 4 -7
v 1 4 -7
v -3 4 -8
v -2 4 -8
v 1 4 -8
v 2 4 -8
v -3 4 -11
v -2 4 -11
v 1 4 -11
v 2 4 -11
v -2 4 -12
v 1 4 -12
v -3 4 -23
v 0 4 -23
v -2 4 -24
v -1 4 -24
v -2 4 -25
v -1 4 -25
v -3 4 -26
v 0 4 -26
v -3 5 27
v 0 5 27
v -4 5 26
v -3 5 26
v 0 5 26
v 1 5 26
v -4 5 23
v -3 5 23
v 0 5 23
v 1 5 23
v -3 5 22
v 0 5 22
v -3 5 -22
v 0 5 -22
v -4 5 -23
v -3 5 -23
v 0 5 -23
v 1 5 -23
v -4 5 -26
v -3 5 -26
v 0 5 -26
v 1 5 -26
v -3 5 -27
v 0 5 -27
v -5 1 30
v 5 1 30
v -2 1 25
v -1 1 25
v -2 1 24
v -1 1 24
v -2 1 21
v 1 1 21
v 0 1 19
v 1 1 19
v -2 1 18
v 0 1 18
v -1 1 10
v 0 1 10
v -1 1 9
v 0 1 9
v 0 1 -0
v 2 1 -0
v -1 1 -1
v 0 1 -1
v 2 1 -1
v 4 1 -1
v 3 1 -2
v 4 1 -2
v -1 1 -3
v 1 1 -3
v 1 1 -4
v 3 1 -4
v -1 1 -9
v 0 1 -9
v -1 1 -10
v 0 1 -10
v -2 1 -18
v 0 1 -18
v 0 1 -19
v 1 1 -19
v -2 1 -21
v 1 1 -21
v -2 1 -24
v -1 1 -24
v -2 1 -25
v -1 1 -25
v -5 1 -30
v 5 1 -30
v -2 2 21
v -1 2 21
v 0 2 21
v 1 2 21
v -2 2 20
v -1 2 20
v -2 2 19
v 0 2 19
v 1 2 19
v -2 2 18
v 0 2 18
v 0 2 -0
v 2 2 -0
v -1 2 -1
v 0 2 -1
v 2 2 -1
v 4 2 -1
v 0 2 -2
v 2 2 -2
v 3 2 -2
v 4 2 -2
v -1 2 -3
v 1 2 -3
v 2 2 -3
v 3 2 -3
v 1 2 -4
v 3 2 -4
v -2 2 -18
v 0 2 -18
v -2 2 -19
v 0 2 -19
v 1 2 -19
v -2 2 -20
v -1 2 -20
v -2 2 -21
v -1 2 -21
v 0 2 -21
v 1 2 -21
v -1 3 20
v 0 3 20
v -1 3 19
v 0 3 19
v 0 3 -1
v 1 3 -1
v 0 3 -2
v 1 3 -2
v 2 3 -2
v 3 3 -2
v 2 3 -3
v 3 3 -3
v -1 3 -19
v 0 3 -19
v -1 3 -20
v 0 3 -20
v -1 4 21
v 0 4 21
v -1 4 20
v 0 4 20
v 1 4 -1
v 2 4 -1
v 1 4 -2
v 2 4 -2
v -1 4 -20
v 0 4 -20
v -1 4 -21
v 0 4 -21
v -2 5 20
v -1 5 20
v -2 5 19
v -1 5 19
v -2 5 -19
v -1 5 -19
v -2 5 -20
v -1 5 -20
v -2 7 12
v 1 7 12
v -3 7 11
v -2 7 11
v 1 7 11
v 2 7 11
v -3 7 8
v -2 7 8
v 1 7 8
v 2 7 8
v -2 7 7
v 1 7 7
v -2 7 -7
v 1 7 -7
v -3 7 -8
v -2 7 -8
v 1 7 -8
v 2 7 -8
v -3 7 -11
v -2 7 -11
v 1 7 -11
v 2 7 -11
v -2 7 -12
v 1 7 -12
v -3 8 27
v 0 8 27
v -4 8 26
v -3 8 26
v 0 8 26
v 1 8 26
v -4 8 23
v -3 8 23
v 0 8 23
v 1 8 23
v -3 8 22
v 0 8 22
v -2 8 11
v 1 8 11
v -2 8 8
v 1 8 8
v -2 8 -8
v 1 8 -8
v -2 8 -11
v 1 8 -11
v -3 8 -22
v 0 8 -22
v -4 8 -23
v -3 8 -23
v 0 8 -23
v 1 8 -23
v -4 8 -26
v -3 8 -26
v 0 8 -26
v 1 8 -26
v -3 8 -27
v 0 8 -27
v -3 9 26
v 0 9 26
v -3 9 23
v 0 9 23
v -3 9 -23
v 0 9 -23
v -3 9 -26
v 0 9 -26

# faces
f 3/2/1 2/2/1 1/2/1
f 4/2/1 2/2/1 3/2/1
f 9/1/1 6/1/1 5/1/1
f 10/1/1 6/1/1 9/1/1
f 11/1/1 8/1/1 7/1/1
f 12/1/1 8/1/1 11/1/1
f 22/1/1 14/1/1 13/1/1
f 23/1/1 14/1/1 22/1/1
f 26/1/1 20/1/1 19/1/1
f 27/1/1 20/1/1 26/1/1
f 29/1/1 16/1/1 15/1/1
f 30/1/1 16/1/1 29/1/1
f 31/1/1 18/1/1 17/1/1
f 32/1/1 18/1/1 31/1/1
f 33/1/1 22/1/1 21/1/1
f 34/1/1 22/1/1 33/1/1
f 35/1/1 24/1/1 23/1/1
f 36/1/1 24/1/1 35/1/1
f 37/1/1 26/1/1 25/1/1
f 38/1/1 26/1/1 37/1/1
f 39/1/1 28/1/1 27/1/1
f 40/1/1 28/1/1 39/1/1
f 41/1/1 35/1/1 34/1/1
f 42/1/1 35/1/1 41/1/1
f 43/1/1 39/1/1 38/1/1
f 44/1/1 39/1/1 43/1/1
f 53/4/1 48/4/1 47/4/1
f 54/4/1 48/4/1 53/4/1
f 55/4/1 48/4/1 54/4/1
f 56/4/1 48/4/1 55/4/1
f 57/4/1 50/4/1 49/4/1
f 58/4/1 50/4/1 57/4/1
f 59/4/1 50/4/1 58/4/1
f 60/4/1 50/4/1 59/4/1
f 65/3/1 46/3/1 45/3/1
f 66/3/1 46/3/1 65/3/1
f 68/1/1 62/1/1 61/1/1
f 69/1/1 62/1/1 68/1/1
f 72/1/1 64/1/1 63/1/1
f 73/1/1 64/1/1 72/1/1
f 75/3/1 52/3/1 51/3/1
f 76/3/1 52/3/1 75/3/1
f 77/4/1 55/4/1 54/4/1
f 78/4/1 55/4/1 77/4/1
f 79/4/1 59/4/1 58/4/1
f 80/4/1 59/4/1 79/4/1
f 81/1/1 68/1/1 67/1/1
f 82/1/1 68/1/1 81/1/1
f 83/1/1 70/1/1 69/1/1
f 84/1/1 70/1/1 83/1/1
f 85/1/1 72/1/1 71/1/1
f 86/1/1 72/1/1 85/1/1
f 87/1/1 74/1/1 73/1/1
f 88/1/1 74/1/1 87/1/1
f 89/1/1 83/1/1 82/1/1
f 90/1/1 83/1/1 89/1/1
f 91/1/1 87/1/1 86/1/1
f 92/1/1 87/1/1 91/1/1
f 101/4/1 96/4/1 95/4/1
f 102/4/1 96/4/1 101/4/1
f 105/3/1 94/3/1 93/3/1
f 106/3/1 94/3/1 105/3/1
f 107/3/1 98/3/1 97/3/1
f 108/3/1 98/3/1 107/3/1
f 109/4/1 100/4/1 99/4/1
f 110/4/1 100/4/1 109/4/1
f 111/4/1 104/4/1 103/4/1
f 112/4/1 104/4/1 111/4/1
f 115/4/1 114/4/1 113/4/1
f 116/4/1 114/4/1 115/4/1
f 118/4/1 117/4/1 116/4/1
f 119/4/1 117/4/1 118/4/1
f 122/4/1 121/4/1 120/4/1
f 123/4/1 121/4/1 122/4/1
f 126/4/1 125/4/1 124/4/1
f 127/4/1 125/4/1 126/4/1
f 130/4/1 129/4/1 128/4/1
f 131/4/1 129/4/1 130/4/1
f 132/3/2 133/3/2 140/3/2
f 140/3/2 133/3/2 141/3/2
f 136/4/2 137/4/2 142/4/2
f 138/4/2 139/4/2 143/4/2
f 134/3/2 135/3/2 144/3/2
f 144/3/2 135/3/2 145/3/2
f 142/4/2 137/4/2 146/4/2
f 146/4/2 137/4/2 147/4/2
f 138/4/2 143/4/2 148/4/2
f 148/4/2 143/4/2 149/4/2
f 150/4/2 151/4/2 159/4/2
f 159/4/2 151/4/2 160/4/2
f 156/4/2 157/4/2 161/4/2
f 161/4/2 157/4/2 162/4/2
f 158/4/2 159/4/2 164/4/2
f 164/4/2 159/4/2 165/4/2
f 152/3/2 153/3/2 166/3/2
f 166/3/2 153/3/2 167/3/2
f 154/3/2 155/3/2 168/3/2
f 168/3/2 155/3/2 169/3/2
f 162/4/2 163/4/2 170/4/2
f 170/4/2 163/4/2 171/4/2
f 158/4/2 164/4/2 174/4/2
f 174/4/2 164/4/2 175/4/2
f 171/4/2 163/4/2 176/4/2
f 176/4/2 163/4/2 177/4/2
f 172/1/2 173/1/2 181/1/2
f 181/1/2 173/1/2 182/1/2
f 178/1/2 179/1/2 185/1/2
f 185/1/2 179/1/2 186/1/2
f 180/1/2 181/1/2 188/1/2
f 188/1/2 181/1/2 189/1/2
f 182/1/2 183/1/2 190/1/2
f 190/1/2 183/1/2 191/1/2
f 184/1/2 185/1/2 192/1/2
f 192/1/2 185/1/2 193/1/2
f 186/1/2 187/1/2 194/1/2
f 194/1/2 187/1/2 195/1/2
f 189/1/2 190/1/2 196/1/2
f 196/1/2 190/1/2 197/1/2
f 193/1/2 194/1/2 198/1/2
f 198/1/2 194/1/2 199/1/2
f 200/4/2 201/4/2 204/4/2
f 204/4/2 201/4/2 205/4/2
f 202/4/2 203/4/2 206/4/2
f 206/4/2 203/4/2 207/4/2
f 208/1/2 209/1/2 213/1/2
f 213/1/2 209/1/2 214/1/2
f 210/1/2 211/1/2 217/1/2
f 217/1/2 211/1/2 218/1/2
f 212/1/2 213/1/2 224/1/2
f 224/1/2 213/1/2 225/1/2
f 214/1/2 215/1/2 226/1/2
f 226/1/2 215/1/2 227/1/2
f 216/1/2 217/1/2 228/1/2
f 228/1/2 217/1/2 229/1/2
f 218/1/2 219/1/2 230/1/2
f 230/1/2 219/1/2 231/1/2
f 220/1/2 221/1/2 232/1/2
f 232/1/2 221/1/2 233/1/2
f 225/1/2 226/1/2 234/1/2
f 234/1/2 226/1/2 235/1/2
f 229/1/2 230/1/2 236/1/2
f 236/1/2 230/1/2 237/1/2
f 222/1/2 223/1/2 238/1/2
f 238/1/2 223/1/2 239/1/2
f 240/4/2 241/4/2 242/4/2
f 242/4/2 241/4/2 243/4/2
f 243/4/2 244/4/2 245/4/2
f 243/4/2 245/4/2 248/4/2
f 248/4/2 245/4/2 249/4/2
f 246/1/2 247/1/2 252/1/2
f 252/1/2 247/1/2 253/1/2
f 250/1/2 251/1/2 254/1/2
f 254/1/2 251/1/2 255/1/2
f 256/4/2 257/4/2 258/4/2
f 258/4/2 257/4/2 259/4/2
f 259/4/2 257/4/2 260/4/2
f 258/4/2 259/4/2 261/4/2
f 261/4/2 259/4/2 262/4/2
f 263/4/2 264/4/2 265/4/2
f 265/4/2 264/4/2 266/4/2
f 267/2/2 268/2/2 269/2/2
f 269/2/2 268/2/2 270/2/2
f 273/2/3 272/2/3 271/2/3
f 274/2/3 272/2/3 273/2/3
f 277/1/3 276/1/3 275/1/3
f 278/1/3 276/1/3 277/1/3
f 282/1/3 280/1/3 279/1/3
f 283/1/3 280/1/3 282/1/3
f 285/1/3 282/1/3 281/1/3
f 286/1/3 282/1/3 285/1/3
f 287/1/3 284/1/3 283/1/3
f 288/1/3 284/1/3 287/1/3
f 289/1/3 287/1/3 286/1/3
f 290/1/3 287/1/3 289/1/3
f 293/3/3 292/3/3 291/3/3
f 294/3/3 292/3/3 293/3/3
f 297/4/3 296/4/3 295/4/3
f 299/4/3 297/4/3 295/4/3
f 299/4/3 298/4/3 297/4/3
f 300/4/3 298/4/3 299/4/3
f 301/4/3 299/4/3 295/4/3
f 302/4/3 299/4/3 301/4/3
f 305/4/3 304/4/3 303/4/3
f 306/4/3 304/4/3 305/4/3
f 307/4/3 304/4/3 306/4/3
f 310/1/3 309/1/3 308/1/3
f 311/1/3 309/1/3 310/1/3
f 315/1/3 313/1/3 312/1/3
f 316/1/3 313/1/3 315/1/3
f 318/1/3 315/1/3 314/1/3
f 319/1/3 315/1/3 318/1/3
f 320/1/3 317/1/3 316/1/3
f 321/1/3 317/1/3 320/1/3
f 322/1/3 320/1/3 319/1/3
f 323/1/3 320/1/3 322/1/3
f 326/3/3 325/3/3 324/3/3
f 327/3/3 325/3/3 326/3/3
f 330/4/3 329/4/3 328/4/3
f 331/4/3 329/4/3 330/4/3
f 334/4/3 333/4/3 332/4/3
f 335/4/3 333/4/3 334/4/3
f 337/4/3 336/4/3 335/4/3
f 340/4/3 337/4/3 335/4/3
f 340/4/3 338/4/3 337/4/3
f 341/4/3 338/4/3 340/4/3
f 342/4/3 340/4/3 339/4/3
f 343/4/3 340/4/3 342/4/3
f 346/4/3 345/4/3 344/4/3
f 347/4/3 345/4/3 346/4/3
f 350/1/3 349/1/3 348/1/3
f 351/1/3 349/1/3 350/1/3
f 355/1/3 353/1/3 352/1/3
f 356/1/3 353/1/3 355/1/3
f 358/1/3 355/1/3 354/1/3
f 359/1/3 355/1/3 358/1/3
f 360/1/3 357/1/3 356/1/3
f 361/1/3 357/1/3 360/1/3
f 362/1/3 360/1/3 359/1/3
f 363/1/3 360/1/3 362/1/3
f 366/3/3 365/3/3 364/3/3
f 367/3/3 365/3/3 366/3/3
f 370/4/3 369/4/3 368/4/3
f 371/4/3 369/4/3 370/4/3
f 374/4/3 373/4/3 372/4/3
f 375/4/3 373/4/3 374/4/3
f 377/4/3 374/4/3 372/4/3
f 378/4/3 374/4/3 377/4/3
f 379/4/3 377/4/3 376/4/3
f 380/4/3 377/4/3 379/4/3
f 383/4/3 382/4/3 381/4/3
f 384/4/3 382/4/3 383/4/3
f 387/1/3 386/1/3 385/1/3
f 388/1/3 386/1/3 387/1/3
f 392/1/3 390/1/3 389/1/3
f 393/1/3 390/1/3 392/1/3
f 395/1/3 392/1/3 391/1/3
f 396/1/3 392/1/3 395/1/3
f 397/1/3 394/1/3 393/1/3
f 398/1/3 394/1/3 397/1/3
f 399/1/3 397/1/3 396/1/3
f 400/1/3 397/1/3 399/1/3
f 403/3/3 402/3/3 401/3/3
f 404/3/3 402/3/3 403/3/3
f 405/3/4 406/3/4 407/3/4
f 407/3/4 406/3/4 408/3/4
f 409/1/4 410/1/4 412/1/4
f 412/1/4 410/1/4 413/1/4
f 411/1/4 412/1/4 415/1/4
f 415/1/4 412/1/4 416/1/4
f 413/1/4 414/1/4 417/1/4
f 417/1/4 414/1/4 418/1/4
f 416/1/4 417/1/4 419/1/4
f 419/1/4 417/1/4 420/1/4
f 421/1/4 422/1/4 423/1/4
f 423/1/4 422/1/4 424/1/4
f 425/4/4 426/4/4 427/4/4
f 427/4/4 426/4/4 428/4/4
f 429/4/4 430/4/4 431/4/4
f 431/4/4 430/4/4 432/4/4
f 429/4/4 431/4/4 434/4/4
f 434/4/4 431/4/4 435/4/4
f 433/4/4 434/4/4 436/4/4
f 436/4/4 434/4/4 437/4/4
f 438/4/4 439/4/4 440/4/4
f 440/4/4 439/4/4 441/4/4
f 442/3/4 443/3/4 444/3/4
f 444/3/4 443/3/4 445/3/4
f 446/1/4 447/1/4 449/1/4
f 449/1/4 447/1/4 450/1/4
f 448/1/4 449/1/4 452/1/4
f 452/1/4 449/1/4 453/1/4
f 450/1/4 451/1/4 454/1/4
f 454/1/4 451/1/4 455/1/4
f 453/1/4 454/1/4 456/1/4
f 456/1/4 454/1/4 457/1/4
f 458/1/4 459/1/4 460/1/4
f 460/1/4 459/1/4 461/1/4
f 462/4/4 463/4/4 464/4/4
f 462/4/4 464/4/4 466/4/4
f 464/4/4 465/4/4 466/4/4
f 466/4/4 465/4/4 467/4/4
f 467/4/4 465/4/4 468/4/4
f 469/4/4 470/4/4 471/4/4
f 471/4/4 470/4/4 472/4/4
f 473/4/4 474/4/4 475/4/4
f 475/4/4 474/4/4 476/4/4
f 477/4/4 478/4/4 479/4/4
f 479/4/4 478/4/4 480/4/4
f 481/4/4 482/4/4 483/4/4
f 483/4/4 482/4/4 484/4/4
f 485/3/4 486/3/4 487/3/4
f 487/3/4 486/3/4 488/3/4
f 489/1/4 490/1/4 492/1/4
f 492/1/4 490/1/4 493/1/4
f 491/1/4 492/1/4 495/1/4
f 495/1/4 492/1/4 496/1/4
f 493/1/4 494/1/4 497/1/4
f 497/1/4 494/1/4 498/1/4
f 496/1/4 497/1/4 499/1/4
f 499/1/4 497/1/4 500/1/4
f 501/1/4 502/1/4 503/1/4
f 503/1/4 502/1/4 504/1/4
f 505/4/4 506/4/4 507/4/4
f 507/4/4 506/4/4 508/4/4
f 508/4/4 506/4/4 509/4/4
f 510/4/4 511/4/4 512/4/4
f 510/4/4 512/4/4 514/4/4
f 512/4/4 513/4/4 514/4/4
f 514/4/4 513/4/4 515/4/4
f 510/4/4 514/4/4 516/4/4
f 516/4/4 514/4/4 517/4/4
f 518/3/4 519/3/4 520/3/4
f 520/3/4 519/3/4 521/3/4
f 522/1/4 523/1/4 525/1/4
f 525/1/4 523/1/4 526/1/4
f 524/1/4 525/1/4 528/1/4
f 528/1/4 525/1/4 529/1/4
f 526/1/4 527/1/4 530/1/4
f 530/1/4 527/1/4 531/1/4
f 529/1/4 530/1/4 532/1/4
f 532/1/4 530/1/4 533/1/4
f 534/1/4 535/1/4 536/1/4
f 536/1/4 535/1/4 537/1/4
f 538/2/4 539/2/4 540/2/4
f 540/2/4 539/2/4 541/2/4
f 544/2/5 543/2/5 542/2/5
f 545/2/5 543/2/5 544/2/5
f 548/1/5 547/1/5 546/1/5
f 549/1/5 547/1/5 548/1/5
f 550/1/5 548/1/5 546/1/5
f 551/1/5 547/1/5 549/1/5
f 552/1/5 550/1/5 546/1/5
f 552/1/5 551/1/5 550/1/5
f 553/1/5 547/1/5 551/1/5
f 553/1/5 551/1/5 552/1/5
f 556/1/5 555/1/5 554/1/5
f 557/1/5 555/1/5 556/1/5
f 558/1/5 556/1/5 554/1/5
f 559/1/5 555/1/5 557/1/5
f 560/1/5 558/1/5 554/1/5
f 560/1/5 559/1/5 558/1/5
f 561/1/5 555/1/5 559/1/5
f 561/1/5 559/1/5 560/1/5
f 564/1/5 563/1/5 562/1/5
f 565/1/5 563/1/5 564/1/5
f 566/1/5 564/1/5 562/1/5
f 567/1/5 563/1/5 565/1/5
f 568/1/5 566/1/5 562/1/5
f 568/1/5 567/1/5 566/1/5
f 569/1/5 563/1/5 567/1/5
f 569/1/5 567/1/5 568/1/5
f 573/1/5 571/1/5 570/1/5
f 574/1/5 571/1/5 573/1/5
f 576/1/5 573/1/5 572/1/5
f 577/1/5 573/1/5 576/1/5
f 578/1/5 575/1/5 574/1/5
f 579/1/5 575/1/5 578/1/5
f 580/1/5 578/1/5 577/1/5
f 581/1/5 578/1/5 580/1/5
f 585/1/5 583/1/5 582/1/5
f 586/1/5 583/1/5 585/1/5
f 588/1/5 585/1/5 584/1/5
f 589/1/5 585/1/5 588/1/5
f 590/1/5 587/1/5 586/1/5
f 591/1/5 587/1/5 590/1/5
f 592/1/5 590/1/5 589/1/5
f 593/1/5 590/1/5 592/1/5
f 596/1/5 595/1/5 594/1/5
f 597/1/5 595/1/5 596/1/5
f 598/1/5 596/1/5 594/1/5
f 599/1/5 595/1/5 597/1/5
f 600/1/5 598/1/5 594/1/5
f 600/1/5 599/1/5 598/1/5
f 601/1/5 595/1/5 599/1/5
f 601/1/5 599/1/5 600/1/5
f 605/1/5 603/1/5 602/1/5
f 606/1/5 603/1/5 605/1/5
f 608/1/5 605/1/5 604/1/5
f 609/1/5 605/1/5 608/1/5
f 610/1/5 607/1/5 606/1/5
f 611/1/5 607/1/5 610/1/5
f 612/1/5 610/1/5 609/1/5
f 613/1/5 610/1/5 612/1/5
f 617/1/5 615/1/5 614/1/5
f 618/1/5 615/1/5 617/1/5
f 620/1/5 617/1/5 616/1/5
f 621/1/5 617/1/5 620/1/5
f 622/1/5 619/1/5 618/1/5
f 623/1/5 619/1/5 622/1/5
f 624/1/5 622/1/5 621/1/5
f 625/1/5 622/1/5 624/1/5
f 626/2/6 627/2/6 628/2/6
f 628/2/6 627/2/6 629/2/6
f 626/2/6 628/2/6 630/2/6
f 629/2/6 627/2/6 631/2/6
f 626/2/6 630/2/6 632/2/6
f 630/2/6 631/2/6 632/2/6
f 631/2/6 627/2/6 633/2/6
f 632/2/6 631/2/6 633/2/6
f 633/2/6 627/2/6 635/2/6
f 626/2/6 632/2/6 636/2/6
f 634/2/6 635/2/6 637/2/6
f 636/2/6 637/2/6 638/2/6
f 637/2/6 635/2/6 639/2/6
f 638/2/6 637/2/6 639/2/6
f 636/2/6 638/2/6 640/2/6
f 639/2/6 635/2/6 641/2/6
f 641/2/6 635/2/6 642/2/6
f 640/2/6 641/2/6 642/2/6
f 635/2/6 627/2/6 643/2/6
f 642/2/6 635/2/6 643/2/6
f 640/2/6 642/2/6 644/2/6
f 636/2/6 640/2/6 644/2/6
f 644/2/6 642/2/6 645/2/6
f 643/2/6 627/2/6 646/2/6
f 646/2/6 627/2/6 647/2/6
f 647/2/6 627/2/6 649/2/6
f 636/2/6 644/2/6 650/2/6
f 650/2/6 651/2/6 652/2/6
f 648/2/6 649/2/6 653/2/6
f 650/2/6 652/2/6 654/2/6
f 652/2/6 653/2/6 654/2/6
f 636/2/6 650/2/6 654/2/6
f 654/2/6 653/2/6 655/2/6
f 636/2/6 654/2/6 656/2/6
f 655/2/6 653/2/6 657/2/6
f 626/2/6 636/2/6 658/2/6
f 656/2/6 657/2/6 658/2/6
f 636/2/6 656/2/6 658/2/6
f 657/2/6 653/2/6 659/2/6
f 658/2/6 657/2/6 659/2/6
f 659/2/6 653/2/6 660/2/6
f 660/2/6 653/2/6 661/2/6
f 626/2/6 658/2/6 662/2/6
f 661/2/6 653/2/6 663/2/6
f 626/2/6 662/2/6 664/2/6
f 662/2/6 663/2/6 664/2/6
f 664/2/6 663/2/6 665/2/6
f 626/2/6 664/2/6 666/2/6
f 665/2/6 663/2/6 667/2/6
f 626/2/6 666/2/6 668/2/6
f 666/2/6 667/2/6 668/2/6
f 663/2/6 653/2/6 669/2/6
f 668/2/6 667/2/6 669/2/6
f 653/2/6 649/2/6 669/2/6
f 649/2/6 627/2/6 669/2/6
f 667/2/6 663/2/6 669/2/6
f 670/4/6 671/4/6 674/4/6
f 674/4/6 671/4/6 675/4/6
f 672/4/6 673/4/6 677/4/6
f 677/4/6 673/4/6 678/4/6
f 676/4/6 677/4/6 679/4/6
f 679/4/6 677/4/6 680/4/6
f 681/4/6 682/4/6 684/4/6
f 684/4/6 682/4/6 685/4/6
f 683/4/6 684/4/6 687/4/6
f 685/4/6 686/4/6 688/4/6
f 688/4/6 686/4/6 689/4/6
f 689/4/6 686/4/6 690/4/6
f 683/4/6 687/4/6 691/4/6
f 687/4/6 688/4/6 691/4/6
f 691/4/6 688/4/6 692/4/6
f 692/4/6 688/4/6 693/4/6
f 693/4/6 694/4/6 695/4/6
f 692/4/6 693/4/6 695/4/6
f 695/4/6 694/4/6 696/4/6
f 697/4/6 698/4/6 699/4/6
f 699/4/6 698/4/6 700/4/6
f 702/4/6 703/4/6 704/4/6
f 704/4/6 703/4/6 705/4/6
f 700/4/6 701/4/6 706/4/6
f 706/4/6 701/4/6 707/4/6
f 708/4/6 709/4/6 710/4/6
f 710/4/6 709/4/6 711/4/6
f 712/4/6 713/4/6 714/4/6
f 714/4/6 713/4/6 715/4/6
f 716/4/6 717/4/6 718/4/6
f 718/4/6 717/4/6 719/4/6
f 720/4/6 721/4/6 722/4/6
f 722/4/6 721/4/6 723/4/6
f 724/4/6 725/4/6 726/4/6
f 726/4/6 725/4/6 727/4/6
f 728/4/6 729/4/6 730/4/6
f 730/4/6 729/4/6 731/4/6
f 732/4/6 733/4/6 734/4/6
f 734/4/6 733/4/6 735/4/6
f 736/4/6 737/4/6 738/4/6
f 738/4/6 737/4/6 739/4/6
f 740/4/6 741/4/6 742/4/6
f 742/4/6 741/4/6 743/4/6
f 744/1/6 745/1/6 747/1/6
f 747/1/6 745/1/6 748/1/6
f 746/1/6 747/1/6 750/1/6
f 750/1/6 747/1/6 751/1/6
f 748/1/6 749/1/6 752/1/6
f 752/1/6 749/1/6 753/1/6
f 751/1/6 752/1/6 754/1/6
f 754/1/6 752/1/6 755/1/6
f 756/1/6 757/1/6 759/1/6
f 759/1/6 757/1/6 760/1/6
f 758/1/6 759/1/6 762/1/6
f 762/1/6 759/1/6 763/1/6
f 760/1/6 761/1/6 764/1/6
f 764/1/6 761/1/6 765/1/6
f 763/1/6 764/1/6 766/1/6
f 766/1/6 764/1/6 767/1/6
f 768/1/6 769/1/6 771/1/6
f 771/1/6 769/1/6 772/1/6
f 770/1/6 771/1/6 774/1/6
f 774/1/6 771/1/6 775/1/6
f 772/1/6 773/1/6 776/1/6
f 776/1/6 773/1/6 777/1/6
f 775/1/6 776/1/6 778/1/6
f 778/1/6 776/1/6 779/1/6
f 780/1/6 781/1/6 782/1/6
f 782/1/6 781/1/6 783/1/6
f 784/1/6 785/1/6 786/1/6
f 786/1/6 785/1/6 787/1/6
f 788/1/6 789/1/6 791/1/6
f 791/1/6 789/1/6 792/1/6
f 790/1/6 791/1/6 794/1/6
f 794/1/6 791/1/6 795/1/6
f 792/1/6 793/1/6 796/1/6
f 796/1/6 793/1/6 797/1/6
f 795/1/6 796/1/6 798/1/6
f 798/1/6 796/1/6 799/1/6
f 800/1/6 801/1/6 802/1/6
f 802/1/6 801/1/6 803/1/6
f 804/1/6 805/1/6 806/1/6
f 806/1/6 805/1/6 807/1/6
