# MagicaVoxel @ ephtracy

# material
mtllib rio.mtl
usemtl palette

# normals
vn -1 0 0
vn 1 0 0
vn 0 0 1
vn 0 0 -1
vn 0 -1 0
vn 0 1 0

# texcoords
vt 0.587891 0.5
vt 0.705078 0.5
vt 0.958984 0.5

# verts
v -45 0 45
v -45 0 33
v -45 0 30
v -45 0 -30
v -45 0 -33
v -45 0 -45
v -45 2 35
v -45 2 33
v -45 2 30
v -45 2 29
v -45 2 -29
v -45 2 -30
v -45 2 -33
v -45 2 -35
v -45 3 45
v -45 3 35
v -45 3 29
v -45 3 -29
v -45 3 -35
v -45 3 -45
v -20 0 45
v -20 0 34
v -20 0 31
v -20 0 -31
v -20 0 -34
v -20 0 -45
v -20 1 32
v -20 1 31
v -20 1 -31
v -20 1 -32
v -20 2 32
v -20 2 31
v -20 2 -31
v -20 2 -32
v -20 3 45
v -20 3 34
v -20 3 31
v -20 3 -31
v -20 3 -34
v -20 3 -45
v -45 0 45
v -45 3 45
v -20 0 45
v -20 3 45
v -45 0 -45
v -45 3 -45
v -20 0 -45
v -20 3 -45
v -45 0 45
v -20 0 45
v -21 0 34
v -20 0 34
v -45 0 33
v -29 0 33
v -29 0 32
v -21 0 32
v -21 0 31
v -20 0 31
v -45 0 30
v -29 0 30
v -45 0 -30
v -29 0 -30
v -21 0 -31
v -20 0 -31
v -29 0 -32
v -21 0 -32
v -45 0 -33
v -29 0 -33
v -21 0 -34
v -20 0 -34
v -45 0 -45
v -20 0 -45
v -45 3 45
v -20 3 45
v -25 3 39
v -24 3 39
v -44 3 38
v -43 3 38
v -42 3 38
v -41 3 38
v -25 3 38
v -24 3 38
v -44 3 37
v -43 3 37
v -42 3 37
v -41 3 37
v -39 3 37
v -38 3 37
v -35 3 37
v -34 3 37
v -26 3 37
v -24 3 37
v -23 3 37
v -21 3 37
v -43 3 36
v -41 3 36
v -39 3 36
v -38 3 36
v -35 3 36
v -34 3 36
v -32 3 36
v -31 3 36
v -26 3 36
v -24 3 36
v -23 3 36
v -22 3 36
v -45 3 35
v -43 3 35
v -42 3 35
v -41 3 35
v -37 3 35
v -36 3 35
v -35 3 35
v -34 3 35
v -32 3 35
v -31 3 35
v -29 3 35
v -27 3 35
v -22 3 35
v -43 3 34
v -42 3 34
v -39 3 34
v -37 3 34
v -36 3 34
v -30 3 34
v -29 3 34
v -28 3 34
v -21 3 34
v -20 3 34
v -39 3 33
v -37 3 33
v -35 3 33
v -34 3 33
v -32 3 33
v -31 3 33
v -30 3 33
v -29 3 33
v -28 3 33
v -27 3 33
v -29 3 32
v -28 3 32
v -22 3 31
v -20 3 31
v -36 3 30
v -35 3 30
v -31 3 30
v -29 3 30
v -28 3 30
v -27 3 30
v -23 3 30
v -22 3 30
v -45 3 29
v -44 3 29
v -42 3 29
v -41 3 29
v -37 3 29
v -36 3 29
v -32 3 29
v -31 3 29
v -30 3 29
v -27 3 29
v -26 3 29
v -24 3 29
v -23 3 29
v -22 3 29
v -21 3 29
v -44 3 28
v -42 3 28
v -39 3 28
v -37 3 28
v -33 3 28
v -32 3 28
v -31 3 28
v -30 3 28
v -26 3 28
v -25 3 28
v -44 3 27
v -43 3 27
v -41 3 27
v -40 3 27
v -35 3 27
v -33 3 27
v -29 3 27
v -28 3 27
v -25 3 27
v -24 3 27
v -22 3 27
v -21 3 27
v -44 3 26
v -43 3 26
v -40 3 26
v -39 3 26
v -37 3 26
v -36 3 26
v -40 3 25
v -39 3 25
v -37 3 25
v -36 3 25
v -35 3 25
v -34 3 25
v -44 3 24
v -43 3 24
v -40 3 24
v -39 3 24
v -35 3 24
v -34 3 24
v -44 3 23
v -43 3 23
v -44 3 -23
v -43 3 -23
v -44 3 -24
v -43 3 -24
v -40 3 -24
v -39 3 -24
v -35 3 -24
v -34 3 -24
v -40 3 -25
v -39 3 -25
v -37 3 -25
v -36 3 -25
v -35 3 -25
v -34 3 -25
v -44 3 -26
v -43 3 -26
v -40 3 -26
v -39 3 -26
v -37 3 -26
v -36 3 -26
v -44 3 -27
v -43 3 -27
v -41 3 -27
v -40 3 -27
v -35 3 -27
v -33 3 -27
v -29 3 -27
v -28 3 -27
v -25 3 -27
v -24 3 -27
v -22 3 -27
v -21 3 -27
v -44 3 -28
v -42 3 -28
v -39 3 -28
v -37 3 -28
v -33 3 -28
v -32 3 -28
v -31 3 -28
v -30 3 -28
v -26 3 -28
v -25 3 -28
v -45 3 -29
v -44 3 -29
v -42 3 -29
v -41 3 -29
v -37 3 -29
v -36 3 -29
v -32 3 -29
v -31 3 -29
v -30 3 -29
v -27 3 -29
v -26 3 -29
v -24 3 -29
v -23 3 -29
v -22 3 -29
v -21 3 -29
v -36 3 -30
v -35 3 -30
v -31 3 -30
v -29 3 -30
v -28 3 -30
v -27 3 -30
v -23 3 -30
v -22 3 -30
v -22 3 -31
v -20 3 -31
v -29 3 -32
v -28 3 -32
v -39 3 -33
v -37 3 -33
v -35 3 -33
v -34 3 -33
v -32 3 -33
v -31 3 -33
v -30 3 -33
v -29 3 -33
v -28 3 -33
v -27 3 -33
v -43 3 -34
v -42 3 -34
v -39 3 -34
v -37 3 -34
v -36 3 -34
v -30 3 -34
v -29 3 -34
v -28 3 -34
v -21 3 -34
v -20 3 -34
v -45 3 -35
v -43 3 -35
v -42 3 -35
v -41 3 -35
v -37 3 -35
v -36 3 -35
v -35 3 -35
v -34 3 -35
v -32 3 -35
v -31 3 -35
v -29 3 -35
v -27 3 -35
v -22 3 -35
v -43 3 -36
v -41 3 -36
v -39 3 -36
v -38 3 -36
v -35 3 -36
v -34 3 -36
v -32 3 -36
v -31 3 -36
v -26 3 -36
v -24 3 -36
v -23 3 -36
v -22 3 -36
v -44 3 -37
v -43 3 -37
v -42 3 -37
v -41 3 -37
v -39 3 -37
v -38 3 -37
v -35 3 -37
v -34 3 -37
v -26 3 -37
v -24 3 -37
v -23 3 -37
v -21 3 -37
v -44 3 -38
v -43 3 -38
v -42 3 -38
v -41 3 -38
v -25 3 -38
v -24 3 -38
v -25 3 -39
v -24 3 -39
v -45 3 -45
v -20 3 -45

# faces
f 7/1/1 2/1/1 1/1/1
f 8/3/1 3/3/1 2/3/1
f 8/1/1 2/1/1 7/1/1
f 9/2/1 4/2/1 3/2/1
f 9/3/1 3/3/1 8/3/1
f 10/2/1 4/2/1 9/2/1
f 11/2/1 4/2/1 10/2/1
f 12/3/1 5/3/1 4/3/1
f 12/2/1 4/2/1 11/2/1
f 13/1/1 6/1/1 5/1/1
f 13/3/1 5/3/1 12/3/1
f 14/1/1 6/1/1 13/1/1
f 15/1/1 7/1/1 1/1/1
f 16/3/1 8/3/1 7/3/1
f 16/1/1 7/1/1 15/1/1
f 16/3/1 9/3/1 8/3/1
f 16/3/1 10/3/1 9/3/1
f 17/2/1 11/2/1 10/2/1
f 17/3/1 10/3/1 16/3/1
f 18/3/1 12/3/1 11/3/1
f 18/2/1 11/2/1 17/2/1
f 18/3/1 14/3/1 13/3/1
f 18/3/1 13/3/1 12/3/1
f 19/1/1 6/1/1 14/1/1
f 19/3/1 14/3/1 18/3/1
f 20/1/1 6/1/1 19/1/1
f 22/3/2 23/3/2 27/3/2
f 23/2/2 24/2/2 28/2/2
f 27/3/2 23/3/2 28/3/2
f 24/3/2 25/3/2 29/3/2
f 28/2/2 24/2/2 29/2/2
f 29/3/2 25/3/2 30/3/2
f 22/3/2 27/3/2 31/3/2
f 27/2/2 28/2/2 31/2/2
f 29/2/2 30/2/2 31/2/2
f 28/2/2 29/2/2 31/2/2
f 31/2/2 30/2/2 32/2/2
f 32/2/2 30/2/2 33/2/2
f 30/3/2 25/3/2 34/3/2
f 33/2/2 30/2/2 34/2/2
f 21/1/2 22/1/2 35/1/2
f 22/3/2 31/3/2 36/3/2
f 35/1/2 22/1/2 36/1/2
f 31/3/2 32/3/2 36/3/2
f 32/2/2 33/2/2 37/2/2
f 36/3/2 32/3/2 37/3/2
f 33/3/2 34/3/2 38/3/2
f 37/2/2 33/2/2 38/2/2
f 34/3/2 25/3/2 39/3/2
f 38/3/2 34/3/2 39/3/2
f 25/1/2 26/1/2 39/1/2
f 39/1/2 26/1/2 40/1/2
f 43/1/3 42/1/3 41/1/3
f 44/1/3 42/1/3 43/1/3
f 45/1/4 46/1/4 47/1/4
f 47/1/4 46/1/4 48/1/4
f 51/1/5 50/1/5 49/1/5
f 52/1/5 50/1/5 51/1/5
f 53/1/5 51/1/5 49/1/5
f 54/1/5 51/1/5 53/1/5
f 55/3/5 54/3/5 53/3/5
f 55/1/5 51/1/5 54/1/5
f 56/3/5 52/3/5 51/3/5
f 56/1/5 51/1/5 55/1/5
f 57/2/5 56/2/5 55/2/5
f 57/3/5 52/3/5 56/3/5
f 58/3/5 52/3/5 57/3/5
f 59/3/5 55/3/5 53/3/5
f 60/2/5 57/2/5 55/2/5
f 60/3/5 55/3/5 59/3/5
f 60/2/5 58/2/5 57/2/5
f 61/2/5 60/2/5 59/2/5
f 62/2/5 58/2/5 60/2/5
f 62/2/5 60/2/5 61/2/5
f 63/2/5 58/2/5 62/2/5
f 64/2/5 58/2/5 63/2/5
f 65/3/5 62/3/5 61/3/5
f 65/2/5 63/2/5 62/2/5
f 66/3/5 64/3/5 63/3/5
f 66/2/5 63/2/5 65/2/5
f 67/3/5 65/3/5 61/3/5
f 68/1/5 66/1/5 65/1/5
f 68/3/5 65/3/5 67/3/5
f 69/3/5 64/3/5 66/3/5
f 69/1/5 66/1/5 68/1/5
f 69/1/5 68/1/5 67/1/5
f 70/3/5 64/3/5 69/3/5
f 71/1/5 69/1/5 67/1/5
f 71/1/5 70/1/5 69/1/5
f 72/1/5 70/1/5 71/1/5
f 73/1/6 74/1/6 75/1/6
f 75/1/6 74/1/6 76/1/6
f 73/1/6 75/1/6 77/1/6
f 77/1/6 75/1/6 78/1/6
f 78/1/6 75/1/6 79/1/6
f 79/1/6 75/1/6 80/1/6
f 75/3/6 76/3/6 81/3/6
f 80/1/6 75/1/6 81/1/6
f 76/1/6 74/1/6 82/1/6
f 81/3/6 76/3/6 82/3/6
f 73/1/6 77/1/6 83/1/6
f 77/3/6 78/3/6 83/3/6
f 78/1/6 79/1/6 84/1/6
f 83/3/6 78/3/6 84/3/6
f 79/3/6 80/3/6 85/3/6
f 84/1/6 79/1/6 85/1/6
f 80/1/6 81/1/6 86/1/6
f 85/3/6 80/3/6 86/3/6
f 81/1/6 82/1/6 86/1/6
f 86/1/6 82/1/6 87/1/6
f 87/1/6 82/1/6 88/1/6
f 88/1/6 82/1/6 89/1/6
f 89/1/6 82/1/6 90/1/6
f 90/1/6 82/1/6 91/1/6
f 82/1/6 74/1/6 92/1/6
f 91/1/6 82/1/6 92/1/6
f 92/1/6 74/1/6 93/1/6
f 93/1/6 74/1/6 94/1/6
f 84/1/6 85/1/6 95/1/6
f 83/1/6 84/1/6 95/1/6
f 85/1/6 86/1/6 95/1/6
f 86/1/6 87/1/6 95/1/6
f 95/1/6 87/1/6 96/1/6
f 87/3/6 88/3/6 97/3/6
f 96/1/6 87/1/6 97/1/6
f 88/1/6 89/1/6 98/1/6
f 97/3/6 88/3/6 98/3/6
f 89/3/6 90/3/6 99/3/6
f 98/1/6 89/1/6 99/1/6
f 90/1/6 91/1/6 100/1/6
f 99/3/6 90/3/6 100/3/6
f 100/1/6 91/1/6 101/1/6
f 101/1/6 91/1/6 102/1/6
f 91/3/6 92/3/6 103/3/6
f 102/1/6 91/1/6 103/1/6
f 92/1/6 93/1/6 104/1/6
f 103/3/6 92/3/6 104/3/6
f 93/3/6 94/3/6 105/3/6
f 104/1/6 93/1/6 105/1/6
f 105/3/6 94/3/6 106/3/6
f 73/1/6 83/1/6 107/1/6
f 83/1/6 95/1/6 107/1/6
f 95/3/6 96/3/6 108/3/6
f 107/1/6 95/1/6 108/1/6
f 108/3/6 96/3/6 109/3/6
f 98/1/6 99/1/6 110/1/6
f 109/3/6 96/3/6 110/3/6
f 96/1/6 97/1/6 110/1/6
f 97/1/6 98/1/6 110/1/6
f 99/1/6 100/1/6 110/1/6
f 100/1/6 101/1/6 110/1/6
f 110/1/6 101/1/6 111/1/6
f 111/1/6 101/1/6 112/1/6
f 112/1/6 101/1/6 113/1/6
f 113/1/6 101/1/6 114/1/6
f 101/3/6 102/3/6 115/3/6
f 114/1/6 101/1/6 115/1/6
f 103/1/6 104/1/6 116/1/6
f 115/3/6 102/3/6 116/3/6
f 102/1/6 103/1/6 116/1/6
f 104/1/6 105/1/6 116/1/6
f 105/1/6 106/1/6 116/1/6
f 116/1/6 106/1/6 117/1/6
f 117/1/6 106/1/6 118/1/6
f 106/3/6 94/3/6 119/3/6
f 118/1/6 106/1/6 119/1/6
f 108/1/6 109/1/6 120/1/6
f 107/3/6 108/3/6 120/3/6
f 110/3/6 111/3/6 121/3/6
f 120/1/6 109/1/6 121/1/6
f 109/3/6 110/3/6 121/3/6
f 121/3/6 111/3/6 122/3/6
f 111/1/6 112/1/6 123/1/6
f 122/3/6 111/3/6 123/3/6
f 112/3/6 113/3/6 124/3/6
f 123/1/6 112/1/6 124/1/6
f 116/3/6 117/3/6 125/3/6
f 117/1/6 118/1/6 126/1/6
f 125/3/6 117/3/6 126/3/6
f 126/1/6 118/1/6 127/1/6
f 94/1/6 74/1/6 128/1/6
f 119/3/6 94/3/6 128/3/6
f 118/3/6 119/3/6 128/3/6
f 128/1/6 74/1/6 129/1/6
f 122/1/6 123/1/6 130/1/6
f 121/3/6 122/3/6 130/3/6
f 120/3/6 121/3/6 130/3/6
f 123/3/6 124/3/6 131/3/6
f 130/1/6 123/1/6 131/1/6
f 113/1/6 114/1/6 132/1/6
f 131/3/6 124/3/6 132/3/6
f 124/3/6 113/3/6 132/3/6
f 114/3/6 115/3/6 133/3/6
f 132/1/6 114/1/6 133/1/6
f 115/1/6 116/1/6 134/1/6
f 133/3/6 115/3/6 134/3/6
f 116/3/6 125/3/6 135/3/6
f 134/1/6 116/1/6 135/1/6
f 125/1/6 126/1/6 136/1/6
f 135/3/6 125/3/6 136/3/6
f 126/3/6 127/3/6 137/3/6
f 136/1/6 126/1/6 137/1/6
f 127/1/6 118/1/6 138/1/6
f 137/3/6 127/3/6 138/3/6
f 128/3/6 129/3/6 139/3/6
f 138/1/6 118/1/6 139/1/6
f 118/3/6 128/3/6 139/3/6
f 136/3/6 137/3/6 140/3/6
f 131/3/6 132/3/6 140/3/6
f 135/3/6 136/3/6 140/3/6
f 132/3/6 133/3/6 140/3/6
f 133/3/6 134/3/6 140/3/6
f 130/3/6 131/3/6 140/3/6
f 137/1/6 138/1/6 140/1/6
f 134/3/6 135/3/6 140/3/6
f 138/3/6 139/3/6 141/3/6
f 140/1/6 138/1/6 141/1/6
f 139/3/6 129/3/6 142/3/6
f 141/3/6 139/3/6 142/3/6
f 140/3/6 141/3/6 142/3/6
f 142/3/6 129/3/6 143/3/6
f 130/3/6 140/3/6 144/3/6
f 140/3/6 142/3/6 144/3/6
f 144/3/6 142/3/6 145/3/6
f 145/3/6 142/3/6 146/3/6
f 146/3/6 142/3/6 147/3/6
f 147/3/6 142/3/6 148/3/6
f 148/3/6 142/3/6 149/3/6
f 149/3/6 142/3/6 150/3/6
f 142/2/6 143/2/6 151/2/6
f 150/3/6 142/3/6 151/3/6
f 120/3/6 130/3/6 152/3/6
f 107/3/6 120/3/6 152/3/6
f 130/3/6 144/3/6 152/3/6
f 152/3/6 144/3/6 153/3/6
f 153/3/6 144/3/6 154/3/6
f 154/3/6 144/3/6 155/3/6
f 155/3/6 144/3/6 156/3/6
f 144/2/6 145/2/6 157/2/6
f 156/3/6 144/3/6 157/3/6
f 145/3/6 146/3/6 158/3/6
f 146/2/6 147/2/6 159/2/6
f 158/3/6 146/3/6 159/3/6
f 159/2/6 147/2/6 160/2/6
f 149/3/6 150/3/6 161/3/6
f 148/2/6 149/2/6 161/2/6
f 161/3/6 150/3/6 162/3/6
f 162/3/6 150/3/6 163/3/6
f 150/2/6 151/2/6 164/2/6
f 163/3/6 150/3/6 164/3/6
f 151/2/6 143/2/6 165/2/6
f 164/2/6 151/2/6 165/2/6
f 165/2/6 143/2/6 166/2/6
f 152/2/6 153/2/6 167/2/6
f 153/3/6 154/3/6 167/3/6
f 154/2/6 155/2/6 168/2/6
f 167/3/6 154/3/6 168/3/6
f 155/3/6 156/3/6 169/3/6
f 156/2/6 157/2/6 170/2/6
f 169/3/6 156/3/6 170/3/6
f 145/3/6 158/3/6 171/3/6
f 158/2/6 159/2/6 172/2/6
f 171/3/6 158/3/6 172/3/6
f 159/3/6 160/3/6 173/3/6
f 172/2/6 159/2/6 173/2/6
f 160/2/6 147/2/6 174/2/6
f 173/3/6 160/3/6 174/3/6
f 162/3/6 163/3/6 175/3/6
f 161/2/6 162/2/6 175/2/6
f 175/3/6 163/3/6 176/3/6
f 152/2/6 167/2/6 177/2/6
f 167/2/6 168/2/6 177/2/6
f 177/2/6 168/2/6 178/2/6
f 168/2/6 155/2/6 179/2/6
f 178/2/6 168/2/6 179/2/6
f 155/3/6 169/3/6 179/3/6
f 179/3/6 169/3/6 180/3/6
f 157/2/6 145/2/6 181/2/6
f 170/2/6 157/2/6 181/2/6
f 145/3/6 171/3/6 181/3/6
f 169/2/6 170/2/6 181/2/6
f 172/2/6 173/2/6 182/2/6
f 181/3/6 171/3/6 182/3/6
f 171/2/6 172/2/6 182/2/6
f 173/2/6 174/2/6 182/2/6
f 174/2/6 147/2/6 183/2/6
f 182/2/6 174/2/6 183/2/6
f 147/3/6 148/3/6 183/3/6
f 161/2/6 175/2/6 184/2/6
f 183/3/6 148/3/6 184/3/6
f 148/2/6 161/2/6 184/2/6
f 175/2/6 176/2/6 184/2/6
f 176/3/6 163/3/6 185/3/6
f 184/2/6 176/2/6 185/2/6
f 163/2/6 164/2/6 186/2/6
f 185/3/6 163/3/6 186/3/6
f 164/2/6 165/2/6 186/2/6
f 165/3/6 166/3/6 187/3/6
f 186/2/6 165/2/6 187/2/6
f 166/2/6 143/2/6 188/2/6
f 187/3/6 166/3/6 188/3/6
f 177/3/6 178/3/6 189/3/6
f 152/2/6 177/2/6 189/2/6
f 179/2/6 180/2/6 190/2/6
f 189/3/6 178/3/6 190/3/6
f 178/2/6 179/2/6 190/2/6
f 180/3/6 169/3/6 191/3/6
f 190/2/6 180/2/6 191/2/6
f 184/2/6 185/2/6 192/2/6
f 191/3/6 169/3/6 192/3/6
f 181/2/6 182/2/6 192/2/6
f 183/2/6 184/2/6 192/2/6
f 185/2/6 186/2/6 192/2/6
f 186/2/6 187/2/6 192/2/6
f 169/2/6 181/2/6 192/2/6
f 187/2/6 188/2/6 192/2/6
f 182/2/6 183/2/6 192/2/6
f 192/2/6 188/2/6 193/2/6
f 193/2/6 188/2/6 194/2/6
f 190/2/6 191/2/6 195/2/6
f 189/2/6 190/2/6 195/2/6
f 191/2/6 192/2/6 195/2/6
f 192/2/6 193/2/6 195/2/6
f 195/2/6 193/2/6 196/2/6
f 193/3/6 194/3/6 197/3/6
f 196/2/6 193/2/6 197/2/6
f 194/2/6 188/2/6 198/2/6
f 197/3/6 194/3/6 198/3/6
f 198/2/6 188/2/6 199/2/6
f 199/2/6 188/2/6 200/2/6
f 152/2/6 189/2/6 201/2/6
f 189/2/6 195/2/6 201/2/6
f 201/2/6 195/2/6 202/2/6
f 195/3/6 196/3/6 203/3/6
f 202/2/6 195/2/6 203/2/6
f 196/2/6 197/2/6 204/2/6
f 203/3/6 196/3/6 204/3/6
f 197/2/6 198/2/6 204/2/6
f 198/2/6 199/2/6 204/2/6
f 199/3/6 200/3/6 205/3/6
f 204/2/6 199/2/6 205/2/6
f 200/2/6 188/2/6 206/2/6
f 205/3/6 200/3/6 206/3/6
f 201/3/6 202/3/6 207/3/6
f 152/2/6 201/2/6 207/2/6
f 202/2/6 203/2/6 208/2/6
f 207/3/6 202/3/6 208/3/6
f 204/2/6 205/2/6 208/2/6
f 205/2/6 206/2/6 208/2/6
f 203/2/6 204/2/6 208/2/6
f 152/2/6 207/2/6 209/2/6
f 207/2/6 208/2/6 209/2/6
f 208/2/6 206/2/6 210/2/6
f 209/2/6 208/2/6 210/2/6
f 152/2/6 209/2/6 211/2/6
f 209/3/6 210/3/6 211/3/6
f 210/2/6 206/2/6 212/2/6
f 211/3/6 210/3/6 212/3/6
f 212/2/6 206/2/6 213/2/6
f 213/2/6 206/2/6 214/2/6
f 214/2/6 206/2/6 215/2/6
f 206/2/6 188/2/6 216/2/6
f 215/2/6 206/2/6 216/2/6
f 211/2/6 212/2/6 217/2/6
f 212/2/6 213/2/6 217/2/6
f 213/3/6 214/3/6 217/3/6
f 214/2/6 215/2/6 218/2/6
f 217/3/6 214/3/6 218/3/6
f 218/2/6 215/2/6 219/2/6
f 219/2/6 215/2/6 220/2/6
f 215/3/6 216/3/6 221/3/6
f 220/2/6 215/2/6 221/2/6
f 216/2/6 188/2/6 222/2/6
f 221/3/6 216/3/6 222/3/6
f 152/2/6 211/2/6 223/2/6
f 211/2/6 217/2/6 223/2/6
f 217/2/6 218/2/6 223/2/6
f 218/2/6 219/2/6 223/2/6
f 223/2/6 219/2/6 224/2/6
f 224/2/6 219/2/6 225/2/6
f 225/2/6 219/2/6 226/2/6
f 219/3/6 220/3/6 227/3/6
f 226/2/6 219/2/6 227/2/6
f 221/2/6 222/2/6 228/2/6
f 227/3/6 220/3/6 228/3/6
f 220/2/6 221/2/6 228/2/6
f 152/2/6 223/2/6 229/2/6
f 223/3/6 224/3/6 229/3/6
f 224/2/6 225/2/6 230/2/6
f 229/3/6 224/3/6 230/3/6
f 230/2/6 225/2/6 231/2/6
f 225/3/6 226/3/6 232/3/6
f 231/2/6 225/2/6 232/2/6
f 226/2/6 227/2/6 233/2/6
f 228/2/6 222/2/6 233/2/6
f 227/2/6 228/2/6 233/2/6
f 222/2/6 188/2/6 234/2/6
f 233/2/6 222/2/6 234/2/6
f 234/2/6 188/2/6 235/2/6
f 235/2/6 188/2/6 236/2/6
f 236/2/6 188/2/6 237/2/6
f 237/2/6 188/2/6 238/2/6
f 238/2/6 188/2/6 239/2/6
f 188/2/6 143/2/6 240/2/6
f 239/2/6 188/2/6 240/2/6
f 152/2/6 229/2/6 241/2/6
f 230/2/6 231/2/6 241/2/6
f 229/2/6 230/2/6 241/2/6
f 241/2/6 231/2/6 242/2/6
f 226/2/6 233/2/6 243/2/6
f 232/3/6 226/3/6 243/3/6
f 231/3/6 232/3/6 243/3/6
f 243/2/6 233/2/6 244/2/6
f 233/3/6 234/3/6 245/3/6
f 234/2/6 235/2/6 245/2/6
f 245/2/6 235/2/6 246/2/6
f 246/2/6 235/2/6 247/2/6
f 247/2/6 235/2/6 248/2/6
f 236/2/6 237/2/6 249/2/6
f 237/3/6 238/3/6 250/3/6
f 249/2/6 237/2/6 250/2/6
f 152/2/6 241/2/6 251/2/6
f 241/3/6 242/3/6 252/3/6
f 251/2/6 241/2/6 252/2/6
f 242/2/6 231/2/6 253/2/6
f 252/3/6 242/3/6 253/3/6
f 243/3/6 244/3/6 254/3/6
f 253/2/6 231/2/6 254/2/6
f 231/3/6 243/3/6 254/3/6
f 244/2/6 233/2/6 255/2/6
f 254/3/6 244/3/6 255/3/6
f 255/2/6 233/2/6 256/2/6
f 245/3/6 246/3/6 257/3/6
f 246/2/6 247/2/6 257/2/6
f 247/3/6 248/3/6 258/3/6
f 257/2/6 247/2/6 258/2/6
f 248/2/6 235/2/6 259/2/6
f 258/3/6 248/3/6 259/3/6
f 236/2/6 249/2/6 260/2/6
f 249/3/6 250/3/6 261/3/6
f 260/2/6 249/2/6 261/2/6
f 238/2/6 239/2/6 262/2/6
f 261/3/6 250/3/6 262/3/6
f 250/3/6 238/3/6 262/3/6
f 262/2/6 239/2/6 263/2/6
f 239/3/6 240/3/6 264/3/6
f 263/2/6 239/2/6 264/2/6
f 240/2/6 143/2/6 265/2/6
f 264/3/6 240/3/6 265/3/6
f 251/3/6 252/3/6 266/3/6
f 253/3/6 254/3/6 266/3/6
f 252/3/6 253/3/6 266/3/6
f 256/2/6 233/2/6 266/2/6
f 254/3/6 255/3/6 266/3/6
f 255/3/6 256/3/6 266/3/6
f 257/3/6 258/3/6 267/3/6
f 266/2/6 233/2/6 267/2/6
f 233/3/6 245/3/6 267/3/6
f 245/3/6 257/3/6 267/3/6
f 258/2/6 259/2/6 268/2/6
f 267/3/6 258/3/6 268/3/6
f 259/2/6 235/2/6 269/2/6
f 268/2/6 259/2/6 269/2/6
f 235/3/6 236/3/6 269/3/6
f 236/2/6 260/2/6 270/2/6
f 269/3/6 236/3/6 270/3/6
f 260/3/6 261/3/6 271/3/6
f 270/2/6 260/2/6 271/2/6
f 262/3/6 263/3/6 271/3/6
f 261/3/6 262/3/6 271/3/6
f 263/2/6 264/2/6 272/2/6
f 271/3/6 263/3/6 272/3/6
f 264/2/6 265/2/6 272/2/6
f 272/2/6 265/2/6 273/2/6
f 269/3/6 270/3/6 274/3/6
f 273/2/6 265/2/6 274/2/6
f 272/3/6 273/3/6 274/3/6
f 271/3/6 272/3/6 274/3/6
f 268/3/6 269/3/6 274/3/6
f 267/3/6 268/3/6 274/3/6
f 266/3/6 267/3/6 274/3/6
f 270/3/6 271/3/6 274/3/6
f 265/2/6 143/2/6 275/2/6
f 274/2/6 265/2/6 275/2/6
f 266/3/6 274/3/6 276/3/6
f 274/3/6 275/3/6 276/3/6
f 276/3/6 275/3/6 277/3/6
f 251/3/6 266/3/6 278/3/6
f 266/3/6 276/3/6 278/3/6
f 278/3/6 276/3/6 279/3/6
f 279/3/6 276/3/6 280/3/6
f 280/3/6 276/3/6 281/3/6
f 281/3/6 276/3/6 282/3/6
f 282/3/6 276/3/6 283/3/6
f 283/3/6 276/3/6 284/3/6
f 276/1/6 277/1/6 285/1/6
f 284/3/6 276/3/6 285/3/6
f 277/3/6 275/3/6 286/3/6
f 285/1/6 277/1/6 286/1/6
f 286/3/6 275/3/6 287/3/6
f 251/3/6 278/3/6 288/3/6
f 288/3/6 278/3/6 289/3/6
f 278/1/6 279/1/6 290/1/6
f 289/3/6 278/3/6 290/3/6
f 279/3/6 280/3/6 291/3/6
f 290/1/6 279/1/6 291/1/6
f 291/3/6 280/3/6 292/3/6
f 284/1/6 285/1/6 293/1/6
f 283/3/6 284/3/6 293/3/6
f 285/3/6 286/3/6 294/3/6
f 293/1/6 285/1/6 294/1/6
f 286/1/6 287/1/6 295/1/6
f 294/3/6 286/3/6 295/3/6
f 287/3/6 275/3/6 296/3/6
f 296/3/6 275/3/6 297/3/6
f 251/3/6 288/3/6 298/3/6
f 288/1/6 289/1/6 299/1/6
f 298/3/6 288/3/6 299/3/6
f 289/3/6 290/3/6 300/3/6
f 299/1/6 289/1/6 300/1/6
f 290/3/6 291/3/6 300/3/6
f 300/3/6 291/3/6 301/3/6
f 291/1/6 292/1/6 302/1/6
f 301/3/6 291/3/6 302/3/6
f 292/3/6 280/3/6 303/3/6
f 302/1/6 292/1/6 303/1/6
f 280/1/6 281/1/6 304/1/6
f 303/3/6 280/3/6 304/3/6
f 281/3/6 282/3/6 305/3/6
f 304/1/6 281/1/6 305/1/6
f 282/1/6 283/1/6 306/1/6
f 305/3/6 282/3/6 306/3/6
f 283/3/6 293/3/6 307/3/6
f 306/1/6 283/1/6 307/1/6
f 293/3/6 294/3/6 307/3/6
f 294/1/6 295/1/6 308/1/6
f 307/3/6 294/3/6 308/3/6
f 295/1/6 287/1/6 309/1/6
f 308/1/6 295/1/6 309/1/6
f 287/3/6 296/3/6 309/3/6
f 309/3/6 296/3/6 310/3/6
f 300/3/6 301/3/6 311/3/6
f 298/1/6 299/1/6 311/1/6
f 299/3/6 300/3/6 311/3/6
f 301/1/6 302/1/6 312/1/6
f 311/3/6 301/3/6 312/3/6
f 302/1/6 303/1/6 312/1/6
f 303/1/6 304/1/6 312/1/6
f 304/1/6 305/1/6 312/1/6
f 305/1/6 306/1/6 312/1/6
f 312/1/6 306/1/6 313/1/6
f 313/1/6 306/1/6 314/1/6
f 314/1/6 306/1/6 315/1/6
f 315/1/6 306/1/6 316/1/6
f 306/3/6 307/3/6 317/3/6
f 316/1/6 306/1/6 317/1/6
f 307/1/6 308/1/6 318/1/6
f 317/3/6 307/3/6 318/3/6
f 309/1/6 310/1/6 318/1/6
f 308/1/6 309/1/6 318/1/6
f 318/1/6 310/1/6 319/1/6
f 319/1/6 310/1/6 320/1/6
f 320/1/6 310/1/6 321/1/6
f 310/3/6 296/3/6 322/3/6
f 321/1/6 310/1/6 322/1/6
f 298/1/6 311/1/6 323/1/6
f 311/1/6 312/1/6 323/1/6
f 312/1/6 313/1/6 323/1/6
f 323/1/6 313/1/6 324/1/6
f 324/1/6 313/1/6 325/1/6
f 325/1/6 313/1/6 326/1/6
f 313/3/6 314/3/6 327/3/6
f 326/1/6 313/1/6 327/1/6
f 314/1/6 315/1/6 328/1/6
f 327/3/6 314/3/6 328/3/6
f 315/3/6 316/3/6 329/3/6
f 328/1/6 315/1/6 329/1/6
f 316/1/6 317/1/6 330/1/6
f 329/3/6 316/3/6 330/3/6
f 317/1/6 318/1/6 330/1/6
f 318/1/6 319/1/6 330/1/6
f 319/3/6 320/3/6 331/3/6
f 330/1/6 319/1/6 331/1/6
f 320/1/6 321/1/6 332/1/6
f 331/3/6 320/3/6 332/3/6
f 321/3/6 322/3/6 333/3/6
f 332/1/6 321/1/6 333/1/6
f 322/3/6 296/3/6 334/3/6
f 333/3/6 322/3/6 334/3/6
f 296/1/6 297/1/6 334/1/6
f 298/1/6 323/1/6 335/1/6
f 323/3/6 324/3/6 335/3/6
f 324/1/6 325/1/6 336/1/6
f 335/3/6 324/3/6 336/3/6
f 325/3/6 326/3/6 337/3/6
f 336/1/6 325/1/6 337/1/6
f 332/1/6 333/1/6 338/1/6
f 337/3/6 326/3/6 338/3/6
f 330/1/6 331/1/6 338/1/6
f 333/1/6 334/1/6 338/1/6
f 328/1/6 329/1/6 338/1/6
f 329/1/6 330/1/6 338/1/6
f 331/1/6 332/1/6 338/1/6
f 326/1/6 327/1/6 338/1/6
f 327/1/6 328/1/6 338/1/6
f 338/1/6 334/1/6 339/1/6
f 339/1/6 334/1/6 340/1/6
f 336/1/6 337/1/6 341/1/6
f 335/1/6 336/1/6 341/1/6
f 339/3/6 340/3/6 341/3/6
f 338/1/6 339/1/6 341/1/6
f 337/1/6 338/1/6 341/1/6
f 340/1/6 334/1/6 342/1/6
f 341/3/6 340/3/6 342/3/6
f 335/1/6 341/1/6 343/1/6
f 298/1/6 335/1/6 343/1/6
f 341/1/6 342/1/6 343/1/6
f 342/1/6 334/1/6 344/1/6
f 343/1/6 342/1/6 344/1/6
f 334/1/6 297/1/6 344/1/6
